<?xml version="1.0" encoding="UTF-8" ?>
<svg version="1.1" width="64" height="64" xmlns="http://www.w3.org/2000/svg" shape-rendering="crispEdges">
<rect x="30" y="4" width="1" height="1" fill="#F2B6B7" />
<rect x="31" y="4" width="1" height="1" fill="#F2B6B7" />
<rect x="32" y="4" width="1" height="1" fill="#F2B6B7" />
<rect x="30" y="5" width="1" height="1" fill="#F2B6B7" />
<rect x="31" y="5" width="1" height="1" fill="#F2B6B7" />
<rect x="32" y="5" width="1" height="1" fill="#F2B6B7" />
<rect x="33" y="5" width="1" height="1" fill="#F2B6B7" />
<rect x="30" y="6" width="1" height="1" fill="#F2B6B7" />
<rect x="31" y="6" width="1" height="1" fill="#F2B6B7" />
<rect x="32" y="6" width="1" height="1" fill="#F2B6B7" />
<rect x="21" y="7" width="1" height="1" fill="#F2B6B7" />
<rect x="22" y="7" width="1" height="1" fill="#F2B6B7" />
<rect x="30" y="7" width="1" height="1" fill="#F2B6B7" />
<rect x="31" y="7" width="1" height="1" fill="#F2B6B7" />
<rect x="32" y="7" width="1" height="1" fill="#EA7C7E" />
<rect x="21" y="8" width="1" height="1" fill="#F2B6B7" />
<rect x="22" y="8" width="1" height="1" fill="#F2B6B7" />
<rect x="23" y="8" width="1" height="1" fill="#F2B6B7" />
<rect x="30" y="8" width="1" height="1" fill="#F2B6B7" />
<rect x="31" y="8" width="1" height="1" fill="#F2B6B7" />
<rect x="32" y="8" width="1" height="1" fill="#EA7C7E" />
<rect x="47" y="8" width="1" height="1" fill="#F2B6B7" />
<rect x="48" y="8" width="1" height="1" fill="#F2B6B7" />
<rect x="21" y="9" width="1" height="1" fill="#F2B6B7" />
<rect x="22" y="9" width="1" height="1" fill="#F2B6B7" />
<rect x="23" y="9" width="1" height="1" fill="#F2B6B7" />
<rect x="30" y="9" width="1" height="1" fill="#F2B6B7" />
<rect x="31" y="9" width="1" height="1" fill="#F2B6B7" />
<rect x="32" y="9" width="1" height="1" fill="#EA7C7E" />
<rect x="46" y="9" width="1" height="1" fill="#F2B6B7" />
<rect x="47" y="9" width="1" height="1" fill="#F2B6B7" />
<rect x="48" y="9" width="1" height="1" fill="#F2B6B7" />
<rect x="9" y="10" width="1" height="1" fill="#F2B6B7" />
<rect x="10" y="10" width="1" height="1" fill="#F2B6B7" />
<rect x="21" y="10" width="1" height="1" fill="#F2B6B7" />
<rect x="22" y="10" width="1" height="1" fill="#F2B6B7" />
<rect x="23" y="10" width="1" height="1" fill="#F2B6B7" />
<rect x="30" y="10" width="1" height="1" fill="#F2B6B7" />
<rect x="31" y="10" width="1" height="1" fill="#F2B6B7" />
<rect x="32" y="10" width="1" height="1" fill="#EA7C7E" />
<rect x="46" y="10" width="1" height="1" fill="#F2B6B7" />
<rect x="47" y="10" width="1" height="1" fill="#F2B6B7" />
<rect x="8" y="11" width="1" height="1" fill="#F2B6B7" />
<rect x="9" y="11" width="1" height="1" fill="#F2B6B7" />
<rect x="10" y="11" width="1" height="1" fill="#F2B6B7" />
<rect x="21" y="11" width="1" height="1" fill="#F2B6B7" />
<rect x="22" y="11" width="1" height="1" fill="#F2B6B7" />
<rect x="23" y="11" width="1" height="1" fill="#F2B6B7" />
<rect x="30" y="11" width="1" height="1" fill="#F2B6B7" />
<rect x="31" y="11" width="1" height="1" fill="#F2B6B7" />
<rect x="32" y="11" width="1" height="1" fill="#EA7C7E" />
<rect x="45" y="11" width="1" height="1" fill="#F2B6B7" />
<rect x="46" y="11" width="1" height="1" fill="#F2B6B7" />
<rect x="47" y="11" width="1" height="1" fill="#F2B6B7" />
<rect x="48" y="11" width="1" height="1" fill="#EA7C7E" />
<rect x="7" y="12" width="1" height="1" fill="#F2B6B7" />
<rect x="8" y="12" width="1" height="1" fill="#F2B6B7" />
<rect x="9" y="12" width="1" height="1" fill="#F2B6B7" />
<rect x="10" y="12" width="1" height="1" fill="#F2B6B7" />
<rect x="21" y="12" width="1" height="1" fill="#F2B6B7" />
<rect x="22" y="12" width="1" height="1" fill="#EA7C7E" />
<rect x="23" y="12" width="1" height="1" fill="#F2B6B7" />
<rect x="30" y="12" width="1" height="1" fill="#F2B6B7" />
<rect x="31" y="12" width="1" height="1" fill="#F2B6B7" />
<rect x="32" y="12" width="1" height="1" fill="#EA7C7E" />
<rect x="40" y="12" width="1" height="1" fill="#F2B6B7" />
<rect x="45" y="12" width="1" height="1" fill="#F2B6B7" />
<rect x="46" y="12" width="1" height="1" fill="#F2B6B7" />
<rect x="47" y="12" width="1" height="1" fill="#F2B6B7" />
<rect x="48" y="12" width="1" height="1" fill="#EA7C7E" />
<rect x="7" y="13" width="1" height="1" fill="#F2B6B7" />
<rect x="8" y="13" width="1" height="1" fill="#F2B6B7" />
<rect x="9" y="13" width="1" height="1" fill="#F2B6B7" />
<rect x="10" y="13" width="1" height="1" fill="#F2B6B7" />
<rect x="11" y="13" width="1" height="1" fill="#F2B6B7" />
<rect x="21" y="13" width="1" height="1" fill="#F2B6B7" />
<rect x="22" y="13" width="1" height="1" fill="#EA7C7E" />
<rect x="23" y="13" width="1" height="1" fill="#F2B6B7" />
<rect x="30" y="13" width="1" height="1" fill="#F2B6B7" />
<rect x="31" y="13" width="1" height="1" fill="#F2B6B7" />
<rect x="32" y="13" width="1" height="1" fill="#EA7C7E" />
<rect x="40" y="13" width="1" height="1" fill="#F2B6B7" />
<rect x="45" y="13" width="1" height="1" fill="#F2B6B7" />
<rect x="46" y="13" width="1" height="1" fill="#F2B6B7" />
<rect x="47" y="13" width="1" height="1" fill="#EA7C7E" />
<rect x="7" y="14" width="1" height="1" fill="#F2B6B7" />
<rect x="8" y="14" width="1" height="1" fill="#F2B6B7" />
<rect x="9" y="14" width="1" height="1" fill="#F2B6B7" />
<rect x="10" y="14" width="1" height="1" fill="#F2B6B7" />
<rect x="11" y="14" width="1" height="1" fill="#F2B6B7" opacity="0.988235" />
<rect x="21" y="14" width="1" height="1" fill="#F2B6B7" />
<rect x="22" y="14" width="1" height="1" fill="#EA7C7E" />
<rect x="23" y="14" width="1" height="1" fill="#CD6062" />
<rect x="24" y="14" width="1" height="1" fill="#CD6062" opacity="0.992157" />
<rect x="30" y="14" width="1" height="1" fill="#F2B6B7" />
<rect x="31" y="14" width="1" height="1" fill="#F2B6B7" />
<rect x="32" y="14" width="1" height="1" fill="#EA7C7E" />
<rect x="40" y="14" width="1" height="1" fill="#F2B6B7" />
<rect x="42" y="14" width="1" height="1" fill="#EA7C7E" />
<rect x="44" y="14" width="1" height="1" fill="#F2B6B7" />
<rect x="45" y="14" width="1" height="1" fill="#F2B6B7" />
<rect x="46" y="14" width="1" height="1" fill="#F2B6B7" />
<rect x="47" y="14" width="1" height="1" fill="#EA7C7E" />
<rect x="7" y="15" width="1" height="1" fill="#F2B6B7" />
<rect x="8" y="15" width="1" height="1" fill="#F2B6B7" />
<rect x="9" y="15" width="1" height="1" fill="#EA7C7E" />
<rect x="10" y="15" width="1" height="1" fill="#EA7C7E" />
<rect x="21" y="15" width="1" height="1" fill="#F2B6B7" />
<rect x="22" y="15" width="1" height="1" fill="#EA7C7E" />
<rect x="23" y="15" width="1" height="1" fill="#CD5F61" />
<rect x="24" y="15" width="1" height="1" fill="#CD5F61" />
<rect x="30" y="15" width="1" height="1" fill="#F2B6B7" />
<rect x="31" y="15" width="1" height="1" fill="#F2B6B7" />
<rect x="32" y="15" width="1" height="1" fill="#EA7C7E" />
<rect x="40" y="15" width="1" height="1" fill="#F2B6B7" />
<rect x="41" y="15" width="1" height="1" fill="#EA7C7E" />
<rect x="42" y="15" width="1" height="1" fill="#EA7C7E" />
<rect x="44" y="15" width="1" height="1" fill="#F2B6B7" />
<rect x="45" y="15" width="1" height="1" fill="#F2B6B7" />
<rect x="46" y="15" width="1" height="1" fill="#EA7C7E" />
<rect x="47" y="15" width="1" height="1" fill="#EA7C7E" />
<rect x="7" y="16" width="1" height="1" fill="#F2B6B7" />
<rect x="8" y="16" width="1" height="1" fill="#F2B6B7" />
<rect x="9" y="16" width="1" height="1" fill="#F2B6B7" />
<rect x="10" y="16" width="1" height="1" fill="#EA7C7E" />
<rect x="21" y="16" width="1" height="1" fill="#F2B6B7" />
<rect x="22" y="16" width="1" height="1" fill="#EA7C7E" />
<rect x="23" y="16" width="1" height="1" fill="#CD5F61" />
<rect x="30" y="16" width="1" height="1" fill="#F2B6B7" />
<rect x="31" y="16" width="1" height="1" fill="#F2B6B7" />
<rect x="32" y="16" width="1" height="1" fill="#EA7C7E" />
<rect x="40" y="16" width="1" height="1" fill="#F2B6B7" />
<rect x="41" y="16" width="1" height="1" fill="#EA7C7E" />
<rect x="42" y="16" width="1" height="1" fill="#EA7C7E" />
<rect x="43" y="16" width="1" height="1" fill="#F2B6B7" />
<rect x="44" y="16" width="1" height="1" fill="#F2B6B7" />
<rect x="45" y="16" width="1" height="1" fill="#F2B6B7" />
<rect x="46" y="16" width="1" height="1" fill="#EA7C7E" />
<rect x="7" y="17" width="1" height="1" fill="#F2B6B7" />
<rect x="8" y="17" width="1" height="1" fill="#F2B6B7" />
<rect x="9" y="17" width="1" height="1" fill="#F2B6B7" />
<rect x="10" y="17" width="1" height="1" fill="#EA7C7E" />
<rect x="11" y="17" width="1" height="1" fill="#EA7C7E" />
<rect x="21" y="17" width="1" height="1" fill="#F2B6B7" />
<rect x="22" y="17" width="1" height="1" fill="#EA7C7E" />
<rect x="23" y="17" width="1" height="1" fill="#CD5F61" />
<rect x="30" y="17" width="1" height="1" fill="#F2B6B7" />
<rect x="31" y="17" width="1" height="1" fill="#F2B6B7" />
<rect x="32" y="17" width="1" height="1" fill="#EA7C7E" />
<rect x="40" y="17" width="1" height="1" fill="#F2B6B7" />
<rect x="41" y="17" width="1" height="1" fill="#EA7C7E" />
<rect x="42" y="17" width="1" height="1" fill="#EA7C7E" />
<rect x="43" y="17" width="1" height="1" fill="#F2B6B7" />
<rect x="44" y="17" width="1" height="1" fill="#F2B6B7" />
<rect x="45" y="17" width="1" height="1" fill="#EA7C7E" />
<rect x="46" y="17" width="1" height="1" fill="#EA7C7E" />
<rect x="8" y="18" width="1" height="1" fill="#F2B6B7" />
<rect x="9" y="18" width="1" height="1" fill="#F2B6B7" />
<rect x="10" y="18" width="1" height="1" fill="#EA7C7E" />
<rect x="11" y="18" width="1" height="1" fill="#EA7C7E" />
<rect x="21" y="18" width="1" height="1" fill="#F2B6B7" />
<rect x="22" y="18" width="1" height="1" fill="#EA7C7E" />
<rect x="23" y="18" width="1" height="1" fill="#CD5F61" />
<rect x="30" y="18" width="1" height="1" fill="#F2B6B7" />
<rect x="31" y="18" width="1" height="1" fill="#F2B6B7" />
<rect x="32" y="18" width="1" height="1" fill="#EA7C7E" />
<rect x="39" y="18" width="1" height="1" fill="#F2B6B7" />
<rect x="40" y="18" width="1" height="1" fill="#F2B6B7" />
<rect x="41" y="18" width="1" height="1" fill="#EA7C7E" />
<rect x="42" y="18" width="1" height="1" fill="#EA7C7E" />
<rect x="43" y="18" width="1" height="1" fill="#F2B6B7" />
<rect x="44" y="18" width="1" height="1" fill="#F2B6B7" />
<rect x="45" y="18" width="1" height="1" fill="#EA7C7E" />
<rect x="9" y="19" width="1" height="1" fill="#F2B6B7" />
<rect x="10" y="19" width="1" height="1" fill="#F2B6B7" />
<rect x="11" y="19" width="1" height="1" fill="#EA7C7E" />
<rect x="12" y="19" width="1" height="1" fill="#EA7C7E" />
<rect x="21" y="19" width="1" height="1" fill="#F2B6B7" />
<rect x="22" y="19" width="1" height="1" fill="#EA7C7E" />
<rect x="23" y="19" width="1" height="1" fill="#CD5F61" />
<rect x="24" y="19" width="1" height="1" fill="#CD5F61" />
<rect x="30" y="19" width="1" height="1" fill="#F2B6B7" />
<rect x="31" y="19" width="1" height="1" fill="#F2B6B7" />
<rect x="32" y="19" width="1" height="1" fill="#EA7C7E" />
<rect x="40" y="19" width="1" height="1" fill="#F2B6B7" />
<rect x="41" y="19" width="1" height="1" fill="#F2B6B7" />
<rect x="42" y="19" width="1" height="1" fill="#EA7C7E" />
<rect x="43" y="19" width="1" height="1" fill="#F2B6B7" />
<rect x="44" y="19" width="1" height="1" fill="#CD5F61" />
<rect x="9" y="20" width="1" height="1" fill="#F2B6B7" />
<rect x="10" y="20" width="1" height="1" fill="#F2B6B7" />
<rect x="11" y="20" width="1" height="1" fill="#EA7C7E" />
<rect x="12" y="20" width="1" height="1" fill="#EA7C7E" />
<rect x="21" y="20" width="1" height="1" fill="#F2B6B7" />
<rect x="22" y="20" width="1" height="1" fill="#EA7C7E" />
<rect x="23" y="20" width="1" height="1" fill="#CD5F61" />
<rect x="24" y="20" width="1" height="1" fill="#CD5F61" />
<rect x="30" y="20" width="1" height="1" fill="#F2B6B7" />
<rect x="31" y="20" width="1" height="1" fill="#F2B6B7" />
<rect x="32" y="20" width="1" height="1" fill="#EA7C7E" />
<rect x="40" y="20" width="1" height="1" fill="#F2B6B7" />
<rect x="41" y="20" width="1" height="1" fill="#F2B6B7" />
<rect x="42" y="20" width="1" height="1" fill="#EA7C7E" />
<rect x="43" y="20" width="1" height="1" fill="#CD6061" />
<rect x="44" y="20" width="1" height="1" fill="#CD5F61" />
<rect x="10" y="21" width="1" height="1" fill="#F2B6B7" />
<rect x="11" y="21" width="1" height="1" fill="#F2B6B7" />
<rect x="12" y="21" width="1" height="1" fill="#EA7C7E" />
<rect x="13" y="21" width="1" height="1" fill="#EA7C7E" />
<rect x="21" y="21" width="1" height="1" fill="#F2B6B7" />
<rect x="22" y="21" width="1" height="1" fill="#EA7C7E" />
<rect x="23" y="21" width="1" height="1" fill="#CD5F61" />
<rect x="24" y="21" width="1" height="1" fill="#CD5F61" />
<rect x="30" y="21" width="1" height="1" fill="#F2B6B7" />
<rect x="31" y="21" width="1" height="1" fill="#F2B6B7" />
<rect x="32" y="21" width="1" height="1" fill="#EA7C7E" />
<rect x="33" y="21" width="1" height="1" fill="#F3B6B7" opacity="0.905882" />
<rect x="40" y="21" width="1" height="1" fill="#F2B6B7" />
<rect x="41" y="21" width="1" height="1" fill="#F2B6B7" />
<rect x="42" y="21" width="1" height="1" fill="#EA7C7E" />
<rect x="43" y="21" width="1" height="1" fill="#CD5F61" />
<rect x="44" y="21" width="1" height="1" fill="#CD5F61" />
<rect x="10" y="22" width="1" height="1" fill="#F2B6B7" />
<rect x="11" y="22" width="1" height="1" fill="#F2B6B7" />
<rect x="12" y="22" width="1" height="1" fill="#F2B6B7" />
<rect x="13" y="22" width="1" height="1" fill="#EA7C7E" />
<rect x="14" y="22" width="1" height="1" fill="#EA7C7E" />
<rect x="16" y="22" width="1" height="1" fill="#EA7C7E" />
<rect x="17" y="22" width="1" height="1" fill="#EA7C7E" />
<rect x="21" y="22" width="1" height="1" fill="#F2B6B7" />
<rect x="22" y="22" width="1" height="1" fill="#EA7C7E" />
<rect x="23" y="22" width="1" height="1" fill="#CD5F61" />
<rect x="24" y="22" width="1" height="1" fill="#CD5F61" />
<rect x="30" y="22" width="1" height="1" fill="#F2B6B7" />
<rect x="31" y="22" width="1" height="1" fill="#F2B6B7" />
<rect x="32" y="22" width="1" height="1" fill="#EA7C7E" />
<rect x="33" y="22" width="1" height="1" fill="#F2B6B7" />
<rect x="40" y="22" width="1" height="1" fill="#F2B6B7" />
<rect x="41" y="22" width="1" height="1" fill="#F2B6B7" />
<rect x="42" y="22" width="1" height="1" fill="#EA7C7E" />
<rect x="43" y="22" width="1" height="1" fill="#CD5F61" />
<rect x="44" y="22" width="1" height="1" fill="#CD5F61" />
<rect x="11" y="23" width="1" height="1" fill="#F2B6B7" />
<rect x="12" y="23" width="1" height="1" fill="#F2B6B7" />
<rect x="13" y="23" width="1" height="1" fill="#F2B6B7" />
<rect x="14" y="23" width="1" height="1" fill="#EA7C7E" />
<rect x="15" y="23" width="1" height="1" fill="#EA7C7E" />
<rect x="16" y="23" width="1" height="1" fill="#EA7C7E" />
<rect x="17" y="23" width="1" height="1" fill="#EA7C7E" />
<rect x="21" y="23" width="1" height="1" fill="#F2B6B7" />
<rect x="22" y="23" width="1" height="1" fill="#EA7C7E" />
<rect x="23" y="23" width="1" height="1" fill="#CD5F61" />
<rect x="24" y="23" width="1" height="1" fill="#CD5F61" />
<rect x="30" y="23" width="1" height="1" fill="#F2B6B7" />
<rect x="31" y="23" width="1" height="1" fill="#F2B6B7" />
<rect x="32" y="23" width="1" height="1" fill="#EA7C7E" />
<rect x="33" y="23" width="1" height="1" fill="#F2B6B7" />
<rect x="40" y="23" width="1" height="1" fill="#F2B6B7" />
<rect x="41" y="23" width="1" height="1" fill="#F2B6B7" />
<rect x="42" y="23" width="1" height="1" fill="#EA7C7E" />
<rect x="43" y="23" width="1" height="1" fill="#CD5F61" />
<rect x="11" y="24" width="1" height="1" fill="#F2B6B7" />
<rect x="12" y="24" width="1" height="1" fill="#F2B6B7" />
<rect x="13" y="24" width="1" height="1" fill="#F2B6B7" />
<rect x="14" y="24" width="1" height="1" fill="#EA7C7E" />
<rect x="15" y="24" width="1" height="1" fill="#EA7C7E" />
<rect x="16" y="24" width="1" height="1" fill="#EA7C7E" />
<rect x="17" y="24" width="1" height="1" fill="#EA7C7E" />
<rect x="21" y="24" width="1" height="1" fill="#F2B6B7" />
<rect x="22" y="24" width="1" height="1" fill="#EA7C7E" />
<rect x="23" y="24" width="1" height="1" fill="#CD5F61" />
<rect x="24" y="24" width="1" height="1" fill="#CD5F61" />
<rect x="30" y="24" width="1" height="1" fill="#F2B6B7" />
<rect x="31" y="24" width="1" height="1" fill="#F2B6B7" />
<rect x="32" y="24" width="1" height="1" fill="#EA7C7E" />
<rect x="33" y="24" width="1" height="1" fill="#F2B6B7" />
<rect x="40" y="24" width="1" height="1" fill="#F2B6B7" />
<rect x="41" y="24" width="1" height="1" fill="#F2B6B7" />
<rect x="42" y="24" width="1" height="1" fill="#EA7C7E" />
<rect x="43" y="24" width="1" height="1" fill="#CD5F61" />
<rect x="13" y="25" width="1" height="1" fill="#F2B6B7" />
<rect x="14" y="25" width="1" height="1" fill="#F2B6B7" />
<rect x="15" y="25" width="1" height="1" fill="#EA7C7E" />
<rect x="16" y="25" width="1" height="1" fill="#EA7C7E" />
<rect x="17" y="25" width="1" height="1" fill="#EA7C7E" />
<rect x="21" y="25" width="1" height="1" fill="#F2B6B7" />
<rect x="22" y="25" width="1" height="1" fill="#EA7C7E" />
<rect x="23" y="25" width="1" height="1" fill="#CD5F61" />
<rect x="24" y="25" width="1" height="1" fill="#CD5F61" />
<rect x="30" y="25" width="1" height="1" fill="#F2B6B7" />
<rect x="31" y="25" width="1" height="1" fill="#F2B6B7" />
<rect x="32" y="25" width="1" height="1" fill="#EA7C7E" />
<rect x="33" y="25" width="1" height="1" fill="#F2B6B7" />
<rect x="40" y="25" width="1" height="1" fill="#F2B6B7" />
<rect x="41" y="25" width="1" height="1" fill="#F2B6B7" />
<rect x="42" y="25" width="1" height="1" fill="#CD5F61" />
<rect x="43" y="25" width="1" height="1" fill="#CD5F61" />
<rect x="14" y="26" width="1" height="1" fill="#F2B6B7" />
<rect x="15" y="26" width="1" height="1" fill="#F2B6B7" />
<rect x="16" y="26" width="1" height="1" fill="#EA7C7E" />
<rect x="17" y="26" width="1" height="1" fill="#EA7C7E" />
<rect x="21" y="26" width="1" height="1" fill="#F2B6B7" />
<rect x="22" y="26" width="1" height="1" fill="#EA7C7E" />
<rect x="23" y="26" width="1" height="1" fill="#CD5F61" />
<rect x="24" y="26" width="1" height="1" fill="#CD5F61" />
<rect x="30" y="26" width="1" height="1" fill="#F2B6B7" />
<rect x="31" y="26" width="1" height="1" fill="#F2B6B7" />
<rect x="32" y="26" width="1" height="1" fill="#EA7C7E" />
<rect x="33" y="26" width="1" height="1" fill="#F2B6B7" />
<rect x="40" y="26" width="1" height="1" fill="#F2B6B7" />
<rect x="41" y="26" width="1" height="1" fill="#F2B6B7" />
<rect x="42" y="26" width="1" height="1" fill="#CD5F61" />
<rect x="43" y="26" width="1" height="1" fill="#CD5F61" />
<rect x="14" y="27" width="1" height="1" fill="#F2B6B7" opacity="0.988235" />
<rect x="15" y="27" width="1" height="1" fill="#F2B6B7" />
<rect x="16" y="27" width="1" height="1" fill="#F2B6B7" />
<rect x="17" y="27" width="1" height="1" fill="#EA7C7E" />
<rect x="18" y="27" width="1" height="1" fill="#EA7C7E" />
<rect x="21" y="27" width="1" height="1" fill="#F2B6B7" />
<rect x="22" y="27" width="1" height="1" fill="#EA7C7E" />
<rect x="23" y="27" width="1" height="1" fill="#CD5F61" />
<rect x="24" y="27" width="1" height="1" fill="#CD5F61" />
<rect x="30" y="27" width="1" height="1" fill="#F2B6B7" />
<rect x="31" y="27" width="1" height="1" fill="#F2B6B7" />
<rect x="32" y="27" width="1" height="1" fill="#F2B6B7" />
<rect x="33" y="27" width="1" height="1" fill="#F2B6B7" />
<rect x="40" y="27" width="1" height="1" fill="#F2B6B7" />
<rect x="41" y="27" width="1" height="1" fill="#F2B6B7" />
<rect x="42" y="27" width="1" height="1" fill="#CD5F61" />
<rect x="43" y="27" width="1" height="1" fill="#CD5F61" />
<rect x="15" y="28" width="1" height="1" fill="#F2B6B7" />
<rect x="16" y="28" width="1" height="1" fill="#F2B6B7" />
<rect x="17" y="28" width="1" height="1" fill="#EA7C7E" />
<rect x="18" y="28" width="1" height="1" fill="#EA7C7E" />
<rect x="21" y="28" width="1" height="1" fill="#F2B6B7" />
<rect x="22" y="28" width="1" height="1" fill="#EA7C7E" />
<rect x="23" y="28" width="1" height="1" fill="#CD5F61" />
<rect x="24" y="28" width="1" height="1" fill="#CD5F61" />
<rect x="30" y="28" width="1" height="1" fill="#F2B6B7" />
<rect x="31" y="28" width="1" height="1" fill="#EA7C7E" />
<rect x="32" y="28" width="1" height="1" fill="#F2B6B7" />
<rect x="33" y="28" width="1" height="1" fill="#F2B6B7" />
<rect x="40" y="28" width="1" height="1" fill="#F2B6B7" />
<rect x="41" y="28" width="1" height="1" fill="#F2B6B7" />
<rect x="42" y="28" width="1" height="1" fill="#CD5F61" />
<rect x="17" y="29" width="1" height="1" fill="#EA7C7E" />
<rect x="18" y="29" width="1" height="1" fill="#D86B6D" />
<rect x="21" y="29" width="1" height="1" fill="#F2B6B7" />
<rect x="22" y="29" width="1" height="1" fill="#F2B6B7" />
<rect x="23" y="29" width="1" height="1" fill="#EA7C7E" />
<rect x="24" y="29" width="1" height="1" fill="#CD5F61" />
<rect x="29" y="29" width="1" height="1" fill="#F2B6B7" />
<rect x="30" y="29" width="1" height="1" fill="#F2B6B7" />
<rect x="31" y="29" width="1" height="1" fill="#F2B6B7" />
<rect x="32" y="29" width="1" height="1" fill="#F2B6B7" />
<rect x="33" y="29" width="1" height="1" fill="#F2B6B7" />
<rect x="40" y="29" width="1" height="1" fill="#F2B6B7" />
<rect x="41" y="29" width="1" height="1" fill="#F2B6B7" />
<rect x="42" y="29" width="1" height="1" fill="#CD5F61" />
<rect x="17" y="30" width="1" height="1" fill="#EA7C7E" />
<rect x="18" y="30" width="1" height="1" fill="#CD6061" />
<rect x="21" y="30" width="1" height="1" fill="#F2B6B7" />
<rect x="22" y="30" width="1" height="1" fill="#F2B6B7" />
<rect x="23" y="30" width="1" height="1" fill="#EA7C7E" />
<rect x="24" y="30" width="1" height="1" fill="#CD5F61" />
<rect x="30" y="30" width="1" height="1" fill="#F2B6B7" />
<rect x="31" y="30" width="1" height="1" fill="#F2B6B7" />
<rect x="32" y="30" width="1" height="1" fill="#F2B6B7" />
<rect x="33" y="30" width="1" height="1" fill="#F2B6B7" />
<rect x="40" y="30" width="1" height="1" fill="#F2B6B7" />
<rect x="41" y="30" width="1" height="1" fill="#EA7C7E" />
<rect x="42" y="30" width="1" height="1" fill="#CD5F61" />
<rect x="17" y="31" width="1" height="1" fill="#EA7C7E" />
<rect x="18" y="31" width="1" height="1" fill="#CD5F61" />
<rect x="19" y="31" width="1" height="1" fill="#CD5F61" />
<rect x="22" y="31" width="1" height="1" fill="#EA7C7E" />
<rect x="23" y="31" width="1" height="1" fill="#EA7C7E" />
<rect x="24" y="31" width="1" height="1" fill="#CD5F61" />
<rect x="30" y="31" width="1" height="1" fill="#F2B6B7" />
<rect x="31" y="31" width="1" height="1" fill="#EA7C7E" />
<rect x="32" y="31" width="1" height="1" fill="#F2B6B7" />
<rect x="40" y="31" width="1" height="1" fill="#F2B6B7" />
<rect x="41" y="31" width="1" height="1" fill="#EA7C7E" />
<rect x="42" y="31" width="1" height="1" fill="#CD5F61" />
<rect x="17" y="32" width="1" height="1" fill="#EA7C7E" />
<rect x="18" y="32" width="1" height="1" fill="#CD5F61" />
<rect x="19" y="32" width="1" height="1" fill="#CD5F61" />
<rect x="23" y="32" width="1" height="1" fill="#EA7C7E" />
<rect x="24" y="32" width="1" height="1" fill="#CD5F61" />
<rect x="30" y="32" width="1" height="1" fill="#F2B6B7" />
<rect x="31" y="32" width="1" height="1" fill="#EA7C7E" />
<rect x="32" y="32" width="1" height="1" fill="#CF6566" />
<rect x="40" y="32" width="1" height="1" fill="#F2B6B7" />
<rect x="41" y="32" width="1" height="1" fill="#EA7C7E" />
<rect x="42" y="32" width="1" height="1" fill="#CD5F61" />
<rect x="17" y="33" width="1" height="1" fill="#EA7C7E" />
<rect x="18" y="33" width="1" height="1" fill="#EA7C7E" />
<rect x="19" y="33" width="1" height="1" fill="#CD5F61" />
<rect x="23" y="33" width="1" height="1" fill="#EA7C7E" />
<rect x="24" y="33" width="1" height="1" fill="#CD5F61" />
<rect x="25" y="33" width="1" height="1" fill="#CD5F61" />
<rect x="30" y="33" width="1" height="1" fill="#F2B6B7" />
<rect x="31" y="33" width="1" height="1" fill="#CD5F61" />
<rect x="32" y="33" width="1" height="1" fill="#CD5F61" />
<rect x="39" y="33" width="1" height="1" fill="#F2B6B7" />
<rect x="40" y="33" width="1" height="1" fill="#F2B6B7" />
<rect x="41" y="33" width="1" height="1" fill="#EA7C7E" />
<rect x="42" y="33" width="1" height="1" fill="#CD5F61" />
<rect x="17" y="34" width="1" height="1" fill="#EA7C7E" />
<rect x="18" y="34" width="1" height="1" fill="#EA7C7E" />
<rect x="19" y="34" width="1" height="1" fill="#CD5F61" />
<rect x="20" y="34" width="1" height="1" fill="#CD5F61" />
<rect x="24" y="34" width="1" height="1" fill="#CD5F61" />
<rect x="25" y="34" width="1" height="1" fill="#CD5F61" />
<rect x="30" y="34" width="1" height="1" fill="#F2B6B7" />
<rect x="31" y="34" width="1" height="1" fill="#CD5F61" />
<rect x="32" y="34" width="1" height="1" fill="#CD6062" opacity="0.992157" />
<rect x="39" y="34" width="1" height="1" fill="#F2B6B7" />
<rect x="40" y="34" width="1" height="1" fill="#F2B6B7" />
<rect x="41" y="34" width="1" height="1" fill="#EA7C7E" />
<rect x="42" y="34" width="1" height="1" fill="#CD5F61" />
<rect x="18" y="35" width="1" height="1" fill="#EA7C7E" />
<rect x="19" y="35" width="1" height="1" fill="#CD6062" />
<rect x="20" y="35" width="1" height="1" fill="#CD5F61" />
<rect x="23" y="35" width="1" height="1" fill="#CD5F61" />
<rect x="24" y="35" width="1" height="1" fill="#EA7C7E" />
<rect x="25" y="35" width="1" height="1" fill="#CD5F61" />
<rect x="26" y="35" width="1" height="1" fill="#CD5F61" opacity="0.996078" />
<rect x="29" y="35" width="1" height="1" fill="#F2B6B7" />
<rect x="30" y="35" width="1" height="1" fill="#F2B6B7" />
<rect x="31" y="35" width="1" height="1" fill="#CD5F61" />
<rect x="39" y="35" width="1" height="1" fill="#F2B6B7" />
<rect x="40" y="35" width="1" height="1" fill="#F2B6B7" />
<rect x="41" y="35" width="1" height="1" fill="#CD5F61" />
<rect x="42" y="35" width="1" height="1" fill="#CD5F61" />
<rect x="18" y="36" width="1" height="1" fill="#EA7C7E" />
<rect x="19" y="36" width="1" height="1" fill="#EA7C7E" />
<rect x="20" y="36" width="1" height="1" fill="#CD5F61" />
<rect x="21" y="36" width="1" height="1" fill="#CD5F61" />
<rect x="23" y="36" width="1" height="1" fill="#CD5F61" />
<rect x="24" y="36" width="1" height="1" fill="#EA7C7E" />
<rect x="25" y="36" width="1" height="1" fill="#CD5F61" />
<rect x="26" y="36" width="1" height="1" fill="#CD5F61" />
<rect x="28" y="36" width="1" height="1" fill="#F2B6B7" />
<rect x="29" y="36" width="1" height="1" fill="#F2B6B7" />
<rect x="30" y="36" width="1" height="1" fill="#EA7C7E" />
<rect x="31" y="36" width="1" height="1" fill="#CD5F61" />
<rect x="40" y="36" width="1" height="1" fill="#EA7C7E" />
<rect x="41" y="36" width="1" height="1" fill="#CD5F61" />
<rect x="42" y="36" width="1" height="1" fill="#CD5F61" />
<rect x="19" y="37" width="1" height="1" fill="#EA7C7E" />
<rect x="20" y="37" width="1" height="1" fill="#CD6061" />
<rect x="21" y="37" width="1" height="1" fill="#CD5F61" />
<rect x="22" y="37" width="1" height="1" fill="#CD5F61" />
<rect x="23" y="37" width="1" height="1" fill="#CD5F61" />
<rect x="24" y="37" width="1" height="1" fill="#CD5F61" />
<rect x="25" y="37" width="1" height="1" fill="#CD5F61" />
<rect x="26" y="37" width="1" height="1" fill="#CD5F61" />
<rect x="28" y="37" width="1" height="1" fill="#F2B6B7" />
<rect x="29" y="37" width="1" height="1" fill="#F2B6B7" />
<rect x="30" y="37" width="1" height="1" fill="#EA7C7E" />
<rect x="31" y="37" width="1" height="1" fill="#CD5F61" />
<rect x="39" y="37" width="1" height="1" fill="#EA7C7E" />
<rect x="40" y="37" width="1" height="1" fill="#EA7C7E" />
<rect x="41" y="37" width="1" height="1" fill="#CD5F61" />
<rect x="42" y="37" width="1" height="1" fill="#CD5F61" />
<rect x="20" y="38" width="1" height="1" fill="#EA7C7E" />
<rect x="21" y="38" width="1" height="1" fill="#CD5F61" />
<rect x="22" y="38" width="1" height="1" fill="#CD5F61" />
<rect x="23" y="38" width="1" height="1" fill="#CD5F61" />
<rect x="24" y="38" width="1" height="1" fill="#CD5F61" />
<rect x="25" y="38" width="1" height="1" fill="#CD5F61" />
<rect x="26" y="38" width="1" height="1" fill="#CD6062" />
<rect x="28" y="38" width="1" height="1" fill="#F2B6B7" />
<rect x="29" y="38" width="1" height="1" fill="#F2B6B7" />
<rect x="30" y="38" width="1" height="1" fill="#CD5F61" />
<rect x="31" y="38" width="1" height="1" fill="#CD5F61" />
<rect x="39" y="38" width="1" height="1" fill="#EA7C7E" />
<rect x="40" y="38" width="1" height="1" fill="#CD5F61" />
<rect x="41" y="38" width="1" height="1" fill="#CD5F61" />
<rect x="20" y="39" width="1" height="1" fill="#EA7C7E" />
<rect x="21" y="39" width="1" height="1" fill="#EA7C7E" />
<rect x="22" y="39" width="1" height="1" fill="#CD5F61" />
<rect x="23" y="39" width="1" height="1" fill="#CD5F61" />
<rect x="24" y="39" width="1" height="1" fill="#CD5F61" />
<rect x="25" y="39" width="1" height="1" fill="#CD5F61" />
<rect x="26" y="39" width="1" height="1" fill="#CD5F61" />
<rect x="28" y="39" width="1" height="1" fill="#F2B6B7" />
<rect x="29" y="39" width="1" height="1" fill="#F2B6B7" />
<rect x="30" y="39" width="1" height="1" fill="#CD5F61" />
<rect x="31" y="39" width="1" height="1" fill="#CD5F61" />
<rect x="38" y="39" width="1" height="1" fill="#EA7C7E" />
<rect x="39" y="39" width="1" height="1" fill="#EA7C7E" />
<rect x="40" y="39" width="1" height="1" fill="#CD5F61" />
<rect x="41" y="39" width="1" height="1" fill="#CD5F61" />
<rect x="21" y="40" width="1" height="1" fill="#EA7C7E" />
<rect x="22" y="40" width="1" height="1" fill="#EA7C7E" />
<rect x="23" y="40" width="1" height="1" fill="#CD5F61" />
<rect x="24" y="40" width="1" height="1" fill="#CD5F61" />
<rect x="25" y="40" width="1" height="1" fill="#CD5F61" />
<rect x="26" y="40" width="1" height="1" fill="#CD5F61" />
<rect x="28" y="40" width="1" height="1" fill="#F2B6B7" />
<rect x="29" y="40" width="1" height="1" fill="#EA7C7E" />
<rect x="30" y="40" width="1" height="1" fill="#CD5F61" />
<rect x="37" y="40" width="1" height="1" fill="#EA7C7E" />
<rect x="38" y="40" width="1" height="1" fill="#EA7C7E" />
<rect x="39" y="40" width="1" height="1" fill="#CD5F61" />
<rect x="40" y="40" width="1" height="1" fill="#CD5F61" />
<rect x="22" y="41" width="1" height="1" fill="#EA7C7E" />
<rect x="23" y="41" width="1" height="1" fill="#CD5F61" />
<rect x="24" y="41" width="1" height="1" fill="#CD5F61" />
<rect x="25" y="41" width="1" height="1" fill="#CD5F61" />
<rect x="26" y="41" width="1" height="1" fill="#CD5F61" />
<rect x="27" y="41" width="1" height="1" fill="#CD5F61" />
<rect x="28" y="41" width="1" height="1" fill="#F2B6B7" />
<rect x="29" y="41" width="1" height="1" fill="#EA7C7E" />
<rect x="30" y="41" width="1" height="1" fill="#CD5F61" />
<rect x="36" y="41" width="1" height="1" fill="#EA7C7E" />
<rect x="37" y="41" width="1" height="1" fill="#EA7C7E" />
<rect x="38" y="41" width="1" height="1" fill="#CD5F61" />
<rect x="39" y="41" width="1" height="1" fill="#CD5F61" />
<rect x="40" y="41" width="1" height="1" fill="#CD5F61" />
<rect x="23" y="42" width="1" height="1" fill="#CE6163" />
<rect x="24" y="42" width="1" height="1" fill="#CD5F61" />
<rect x="25" y="42" width="1" height="1" fill="#CD5F61" />
<rect x="26" y="42" width="1" height="1" fill="#CD5F61" />
<rect x="27" y="42" width="1" height="1" fill="#CD5F61" />
<rect x="28" y="42" width="1" height="1" fill="#DF8A8C" />
<rect x="29" y="42" width="1" height="1" fill="#EA7C7E" />
<rect x="30" y="42" width="1" height="1" fill="#CD5F61" />
<rect x="36" y="42" width="1" height="1" fill="#EA7C7E" />
<rect x="37" y="42" width="1" height="1" fill="#EA7C7E" />
<rect x="38" y="42" width="1" height="1" fill="#CD5F61" />
<rect x="39" y="42" width="1" height="1" fill="#CD5F61" />
<rect x="23" y="43" width="1" height="1" fill="#CD5F61" />
<rect x="24" y="43" width="1" height="1" fill="#CD6061" />
<rect x="25" y="43" width="1" height="1" fill="#EA7C7E" />
<rect x="26" y="43" width="1" height="1" fill="#CF6264" />
<rect x="27" y="43" width="1" height="1" fill="#CD5F61" />
<rect x="28" y="43" width="1" height="1" fill="#CF6567" />
<rect x="29" y="43" width="1" height="1" fill="#CD5F61" />
<rect x="30" y="43" width="1" height="1" fill="#CD5F61" />
<rect x="35" y="43" width="1" height="1" fill="#EA7C7E" />
<rect x="36" y="43" width="1" height="1" fill="#EA7C7E" />
<rect x="37" y="43" width="1" height="1" fill="#CD5F61" />
<rect x="38" y="43" width="1" height="1" fill="#CD5F61" />
<rect x="39" y="43" width="1" height="1" fill="#CD5F61" />
<rect x="23" y="44" width="1" height="1" fill="#CD5F61" />
<rect x="24" y="44" width="1" height="1" fill="#CD5F61" />
<rect x="25" y="44" width="1" height="1" fill="#EA7C7E" />
<rect x="26" y="44" width="1" height="1" fill="#EA7C7E" />
<rect x="27" y="44" width="1" height="1" fill="#CD5F61" />
<rect x="28" y="44" width="1" height="1" fill="#CD5F61" />
<rect x="29" y="44" width="1" height="1" fill="#CD5F61" />
<rect x="30" y="44" width="1" height="1" fill="#CD5F61" />
<rect x="34" y="44" width="1" height="1" fill="#EA7C7E" />
<rect x="35" y="44" width="1" height="1" fill="#EA7C7E" />
<rect x="36" y="44" width="1" height="1" fill="#CD5F61" />
<rect x="37" y="44" width="1" height="1" fill="#CD5F61" />
<rect x="38" y="44" width="1" height="1" fill="#CD5F61" />
<rect x="24" y="45" width="1" height="1" fill="#CD5F61" />
<rect x="25" y="45" width="1" height="1" fill="#CD5F61" />
<rect x="26" y="45" width="1" height="1" fill="#EA7C7E" />
<rect x="27" y="45" width="1" height="1" fill="#EA7C7E" />
<rect x="28" y="45" width="1" height="1" fill="#CD5F61" />
<rect x="29" y="45" width="1" height="1" fill="#CD5F61" />
<rect x="30" y="45" width="1" height="1" fill="#CD5F61" />
<rect x="33" y="45" width="1" height="1" fill="#EA7C7E" />
<rect x="34" y="45" width="1" height="1" fill="#EA7C7E" />
<rect x="35" y="45" width="1" height="1" fill="#EA7C7E" />
<rect x="36" y="45" width="1" height="1" fill="#CD5F61" />
<rect x="37" y="45" width="1" height="1" fill="#CD5F61" />
<rect x="25" y="46" width="1" height="1" fill="#CD5F61" />
<rect x="26" y="46" width="1" height="1" fill="#CD5F61" />
<rect x="27" y="46" width="1" height="1" fill="#EA7C7E" />
<rect x="28" y="46" width="1" height="1" fill="#CD5F61" />
<rect x="29" y="46" width="1" height="1" fill="#CD5F61" />
<rect x="33" y="46" width="1" height="1" fill="#EA7C7E" />
<rect x="34" y="46" width="1" height="1" fill="#EA7C7E" />
<rect x="35" y="46" width="1" height="1" fill="#EA7C7E" />
<rect x="36" y="46" width="1" height="1" fill="#CD5F61" />
<rect x="37" y="46" width="1" height="1" fill="#CD5F61" />
<rect x="25" y="47" width="1" height="1" fill="#CD5F61" />
<rect x="26" y="47" width="1" height="1" fill="#CD5F61" />
<rect x="27" y="47" width="1" height="1" fill="#EA7C7E" />
<rect x="28" y="47" width="1" height="1" fill="#CD5F61" />
<rect x="29" y="47" width="1" height="1" fill="#CD5F61" />
<rect x="32" y="47" width="1" height="1" fill="#EA7C7E" />
<rect x="33" y="47" width="1" height="1" fill="#EA7C7E" />
<rect x="34" y="47" width="1" height="1" fill="#EA7C7E" />
<rect x="35" y="47" width="1" height="1" fill="#CD5F61" />
<rect x="36" y="47" width="1" height="1" fill="#CD5F61" />
<rect x="37" y="47" width="1" height="1" fill="#CD5F61" />
<rect x="26" y="48" width="1" height="1" fill="#CD5F61" />
<rect x="27" y="48" width="1" height="1" fill="#CD5F61" />
<rect x="28" y="48" width="1" height="1" fill="#EA7C7E" />
<rect x="29" y="48" width="1" height="1" fill="#CD5F61" />
<rect x="30" y="48" width="1" height="1" fill="#CD5F61" />
<rect x="31" y="48" width="1" height="1" fill="#EA7C7E" />
<rect x="32" y="48" width="1" height="1" fill="#EA7C7E" />
<rect x="33" y="48" width="1" height="1" fill="#EA7C7E" />
<rect x="34" y="48" width="1" height="1" fill="#EA7C7E" />
<rect x="35" y="48" width="1" height="1" fill="#CD5F61" />
<rect x="36" y="48" width="1" height="1" fill="#CD5F61" />
<rect x="26" y="49" width="1" height="1" fill="#CD5F61" />
<rect x="27" y="49" width="1" height="1" fill="#CD5F61" />
<rect x="28" y="49" width="1" height="1" fill="#EA7C7E" />
<rect x="29" y="49" width="1" height="1" fill="#CD5F61" />
<rect x="30" y="49" width="1" height="1" fill="#CD5F61" />
<rect x="31" y="49" width="1" height="1" fill="#EA7C7E" />
<rect x="32" y="49" width="1" height="1" fill="#EA7C7E" />
<rect x="33" y="49" width="1" height="1" fill="#EA7C7E" />
<rect x="34" y="49" width="1" height="1" fill="#CD5F61" />
<rect x="35" y="49" width="1" height="1" fill="#CD5F61" />
<rect x="36" y="49" width="1" height="1" fill="#CD5F61" />
<rect x="27" y="50" width="1" height="1" fill="#CD5F61" />
<rect x="28" y="50" width="1" height="1" fill="#EA7C7E" />
<rect x="29" y="50" width="1" height="1" fill="#CD6062" />
<rect x="30" y="50" width="1" height="1" fill="#CD5F61" />
<rect x="31" y="50" width="1" height="1" fill="#CD5F61" />
<rect x="32" y="50" width="1" height="1" fill="#EA7C7E" />
<rect x="33" y="50" width="1" height="1" fill="#EA7C7E" />
<rect x="34" y="50" width="1" height="1" fill="#CD5F61" />
<rect x="35" y="50" width="1" height="1" fill="#CD5F61" />
<rect x="27" y="51" width="1" height="1" fill="#CD5F61" />
<rect x="28" y="51" width="1" height="1" fill="#CD5F61" />
<rect x="29" y="51" width="1" height="1" fill="#EA7C7E" />
<rect x="30" y="51" width="1" height="1" fill="#CD5F61" />
<rect x="31" y="51" width="1" height="1" fill="#CD5F61" />
<rect x="32" y="51" width="1" height="1" fill="#EA7C7E" />
<rect x="33" y="51" width="1" height="1" fill="#CD5F61" />
<rect x="34" y="51" width="1" height="1" fill="#CD5F61" />
<rect x="35" y="51" width="1" height="1" fill="#CD5F61" />
<rect x="27" y="52" width="1" height="1" fill="#CD5F61" />
<rect x="28" y="52" width="1" height="1" fill="#CD5F61" />
<rect x="29" y="52" width="1" height="1" fill="#EA7C7E" />
<rect x="30" y="52" width="1" height="1" fill="#EA7C7E" />
<rect x="31" y="52" width="1" height="1" fill="#CD6061" />
<rect x="32" y="52" width="1" height="1" fill="#D46668" />
<rect x="33" y="52" width="1" height="1" fill="#CD5F61" />
<rect x="34" y="52" width="1" height="1" fill="#CD5F61" />
<rect x="27" y="53" width="1" height="1" fill="#CD5F61" />
<rect x="28" y="53" width="1" height="1" fill="#EA7C7E" />
<rect x="29" y="53" width="1" height="1" fill="#EA7C7E" />
<rect x="30" y="53" width="1" height="1" fill="#EA7C7E" />
<rect x="31" y="53" width="1" height="1" fill="#EA7C7E" />
<rect x="32" y="53" width="1" height="1" fill="#CD5F61" />
<rect x="33" y="53" width="1" height="1" fill="#CD5F61" />
<rect x="34" y="53" width="1" height="1" fill="#CD5F61" />
<rect x="27" y="54" width="1" height="1" fill="#CD5F61" />
<rect x="28" y="54" width="1" height="1" fill="#EA7C7E" />
<rect x="29" y="54" width="1" height="1" fill="#EA7C7E" />
<rect x="30" y="54" width="1" height="1" fill="#EA7C7E" />
<rect x="31" y="54" width="1" height="1" fill="#EA7C7E" />
<rect x="32" y="54" width="1" height="1" fill="#CD5F61" />
<rect x="33" y="54" width="1" height="1" fill="#CD5F61" />
<rect x="27" y="55" width="1" height="1" fill="#CD5F61" />
<rect x="28" y="55" width="1" height="1" fill="#EA7C7E" />
<rect x="29" y="55" width="1" height="1" fill="#EA7C7E" />
<rect x="30" y="55" width="1" height="1" fill="#EA7C7E" />
<rect x="31" y="55" width="1" height="1" fill="#EA7C7E" />
<rect x="32" y="55" width="1" height="1" fill="#EA7C7E" />
<rect x="33" y="55" width="1" height="1" fill="#CD5F61" />
<rect x="27" y="56" width="1" height="1" fill="#CD5F61" />
<rect x="28" y="56" width="1" height="1" fill="#EA7C7E" />
<rect x="29" y="56" width="1" height="1" fill="#EA7C7E" />
<rect x="30" y="56" width="1" height="1" fill="#EA7C7E" />
<rect x="31" y="56" width="1" height="1" fill="#EA7C7E" />
<rect x="32" y="56" width="1" height="1" fill="#EA7C7E" />
<rect x="33" y="56" width="1" height="1" fill="#CD5F61" />
<rect x="27" y="57" width="1" height="1" fill="#CD5F61" />
<rect x="28" y="57" width="1" height="1" fill="#EA7C7E" />
<rect x="29" y="57" width="1" height="1" fill="#EA7C7E" />
<rect x="30" y="57" width="1" height="1" fill="#EA7C7E" />
<rect x="31" y="57" width="1" height="1" fill="#EA7C7E" />
<rect x="32" y="57" width="1" height="1" fill="#CD5F61" />
<rect x="33" y="57" width="1" height="1" fill="#CD5F61" />
<rect x="27" y="58" width="1" height="1" fill="#CD5F61" />
<rect x="28" y="58" width="1" height="1" fill="#CD6061" />
<rect x="29" y="58" width="1" height="1" fill="#EA7C7E" />
<rect x="30" y="58" width="1" height="1" fill="#EA7C7E" />
<rect x="31" y="58" width="1" height="1" fill="#EA7C7E" />
<rect x="32" y="58" width="1" height="1" fill="#CD5F61" />
<rect x="33" y="58" width="1" height="1" fill="#CD5F61" />
<rect x="27" y="59" width="1" height="1" fill="#CD5F61" />
<rect x="28" y="59" width="1" height="1" fill="#CD5F61" />
<rect x="29" y="59" width="1" height="1" fill="#EA7C7E" />
<rect x="30" y="59" width="1" height="1" fill="#EA7C7E" />
<rect x="31" y="59" width="1" height="1" fill="#EA7C7E" />
<rect x="32" y="59" width="1" height="1" fill="#CD5F61" />
<rect x="33" y="59" width="1" height="1" fill="#CD5F61" />
<rect x="27" y="60" width="1" height="1" fill="#CD5F61" />
<rect x="28" y="60" width="1" height="1" fill="#CD5F61" />
<rect x="29" y="60" width="1" height="1" fill="#EA7C7E" />
<rect x="30" y="60" width="1" height="1" fill="#EA7C7E" />
<rect x="31" y="60" width="1" height="1" fill="#EA7C7E" />
<rect x="32" y="60" width="1" height="1" fill="#CD5F61" />
<rect x="33" y="60" width="1" height="1" fill="#CD5F61" />
<rect x="22" y="61" width="1" height="1" fill="#CD5F61" />
<rect x="23" y="61" width="1" height="1" fill="#CD5F61" />
<rect x="24" y="61" width="1" height="1" fill="#CD5F61" />
<rect x="25" y="61" width="1" height="1" fill="#CD5F61" />
<rect x="26" y="61" width="1" height="1" fill="#CD5F61" />
<rect x="27" y="61" width="1" height="1" fill="#CD5F61" />
<rect x="28" y="61" width="1" height="1" fill="#CD5F61" />
<rect x="29" y="61" width="1" height="1" fill="#CD5F61" />
<rect x="30" y="61" width="1" height="1" fill="#CD5F61" />
<rect x="31" y="61" width="1" height="1" fill="#CD5F61" />
<rect x="32" y="61" width="1" height="1" fill="#CD5F61" />
<rect x="33" y="61" width="1" height="1" fill="#CD5F61" />
<rect x="34" y="61" width="1" height="1" fill="#CD5F61" />
<rect x="35" y="61" width="1" height="1" fill="#CD5F61" />
<rect x="36" y="61" width="1" height="1" fill="#CD5F61" />
<rect x="22" y="62" width="1" height="1" fill="#CD5F61" />
<rect x="23" y="62" width="1" height="1" fill="#CD5F61" />
<rect x="24" y="62" width="1" height="1" fill="#CD5F61" />
<rect x="25" y="62" width="1" height="1" fill="#CD5F61" />
<rect x="26" y="62" width="1" height="1" fill="#CD5F61" />
<rect x="27" y="62" width="1" height="1" fill="#CD5F61" />
<rect x="28" y="62" width="1" height="1" fill="#CD5F61" />
<rect x="29" y="62" width="1" height="1" fill="#CD5F61" />
<rect x="30" y="62" width="1" height="1" fill="#CD5F61" />
<rect x="31" y="62" width="1" height="1" fill="#CD5F61" />
<rect x="32" y="62" width="1" height="1" fill="#CD5F61" />
<rect x="33" y="62" width="1" height="1" fill="#CD5F61" />
<rect x="34" y="62" width="1" height="1" fill="#CD5F61" />
<rect x="35" y="62" width="1" height="1" fill="#CD5F61" />
<rect x="36" y="62" width="1" height="1" fill="#CD5F61" />
<rect x="37" y="62" width="1" height="1" fill="#CD5F61" />
</svg>