<?xml version="1.0" encoding="UTF-8"?>
<svg id="Layer_1" data-name="Layer 1" xmlns="http://www.w3.org/2000/svg" viewBox="0 0 1080 1080">
  <defs>
    <style>
      .cls-1 {
        fill: none;
      }

      .cls-2 {
        fill: #f8f8f8;
      }

      .cls-3 {
        fill: #7e91b7;
      }

      .cls-4 {
        fill: #80dce0;
      }

      .cls-5 {
        fill: #98b1d9;
      }

      .cls-6 {
        fill: #97b0d8;
      }

      .cls-7 {
        fill: #7f93b9;
      }

      .cls-8 {
        fill: #8a9fc6;
      }

      .cls-9 {
        fill: #b8cdee;
      }

      .cls-10 {
        fill: #8ea4cb;
      }

      .cls-11 {
        fill: #a5b7d8;
      }

      .cls-12 {
        fill: #424768;
      }

      .cls-13, .cls-14, .cls-15, .cls-16, .cls-17, .cls-18, .cls-19, .cls-20 {
        fill: #404465;
      }

      .cls-21 {
        fill: #404466;
      }

      .cls-22 {
        fill: #444c6d;
      }

      .cls-23 {
        fill: #444c6e;
      }

      .cls-24 {
        fill: #444b6d;
      }

      .cls-25 {
        fill: #3f4667;
      }

      .cls-26 {
        fill: #869bc2;
      }

      .cls-27 {
        fill: #5b6689;
      }

      .cls-28 {
        fill: #5b5e7a;
      }

      .cls-29 {
        fill: #5c678a;
      }

      .cls-30 {
        fill: #316a9f;
      }

      .cls-31 {
        fill: #24b2c0;
      }

      .cls-32 {
        fill: #4b5a7c;
      }

      .cls-33 {
        fill: #506386;
      }

      .cls-34 {
        fill: #4d5476;
      }

      .cls-35 {
        fill: #454d6f;
      }

      .cls-14 {
        opacity: .9;
      }

      .cls-14, .cls-15, .cls-16, .cls-17, .cls-18, .cls-19, .cls-20 {
        isolation: isolate;
      }

      .cls-15 {
        opacity: .47;
      }

      .cls-16 {
        opacity: .85;
      }

      .cls-17 {
        opacity: .86;
      }

      .cls-18 {
        opacity: .95;
      }

      .cls-19 {
        opacity: .05;
      }

      .cls-20 {
        opacity: .11;
      }
    </style>
  </defs>
  <g>
    <path class="cls-1" d="m360.92,963.68H65.73v14.06h309.25v-14.06h-14.06Z"/>
    <g>
      <path class="cls-13" d="m866.97,626.31H9.5v407.65h871.52v-407.65h-14.06Zm0,28.11v365.48H23.56v-379.53h843.41v14.06Z"/>
      <path class="cls-13" d="m810.74,668.48H51.67v323.31h787.18v-323.31h-28.11Zm-745.01,28.11v-14.06h126.51v28.11h-14.06v14.06h-28.11v14.06h-14.06v-14.06h-28.11v-14.06h-42.17v-14.06Zm0,112.45v-84.34h28.11v14.06h28.11v14.06h14.06v14.06h14.06v14.06h-28.11v14.06h-14.06v14.06h-28.11v14.06h-14.06v-14.06Zm759.07-112.45v210.85h-14.06v-14.06h-14.06v28.11h14.06v14.06h14.06v42.17h-351.42v-14.06h-14.06v-14.06h-28.11v-14.06h-182.74v14.06h168.68v14.06h28.11v14.06H65.73v-126.51h14.06v-14.06h14.06v-14.06h28.11v-14.06h14.06v-14.06h14.06v70.28h14.06v28.11h14.06v14.06h14.06v14.06h14.06v14.06h42.17v-14.06h-28.11v-14.06h-14.06v-14.06h-14.06v-14.06h-14.06v-28.11h-14.06v-42.17h42.17v-14.06h-28.11v-14.06h98.4v-14.06h-98.4v-14.06h-14.06v-14.06h28.11v-14.06h14.06v-42.17h196.8v14.06h-14.06v14.06h28.11v-14.06h14.06v-14.06h393.59v14.06Z"/>
    </g>
    <path class="cls-31" d="m290.64,738.77v14.06h28.11v-14.06h-28.11Z"/>
    <path class="cls-13" d="m304.69,766.88h28.11v-14.06h14.06v-14.06h28.11v-14.06h14.06v-14.06h-28.11v14.06h-28.11v14.06h-14.06v14.06h-42.17v14.06h28.11Z"/>
    <rect class="cls-31" x="93.84" y="795" width="14.06" height="14.06"/>
    <path class="cls-13" d="m220.35,823.11h28.11v-14.06h-42.17v14.06h14.06Z"/>
    <path class="cls-13" d="m262.52,837.17h365.48v-14.06H248.47v14.06h14.06Z"/>
    <path class="cls-13" d="m642.06,851.22h70.28v-14.06h-84.34v14.06h14.06Z"/>
    <path class="cls-13" d="m726.4,865.28h28.11v-14.06h-42.17v14.06h14.06Z"/>
    <path class="cls-13" d="m768.57,879.34h14.06v-14.06h-28.11v14.06h14.06Z"/>
    <rect class="cls-31" x="768.57" y="879.34" width="14.06" height="14.06"/>
    <rect class="cls-13" x="782.63" y="879.34" width="14.06" height="14.06"/>
    <g>
      <path class="cls-31" d="m290.64,752.82v-14.06h42.17v-14.06h28.11v-14.06h28.11v-14.06h14.06v-14.06h-196.8v42.17h-14.06v14.06h-28.11v14.06h14.06v14.06h98.4v-14.06h14.06Z"/>
      <path class="cls-31" d="m79.78,809.05h14.06v-14.06h28.11v-14.06h28.11v-14.06h-14.06v-14.06h-14.06v-14.06h-28.11v-14.06h-28.11v98.4h14.06v-14.06Z"/>
      <path class="cls-31" d="m768.57,893.39v-14.06h-14.06v-14.06h-42.17v-14.06h-84.34v-14.06H248.47v-14.06h-42.17v-14.06h-42.17v42.17h14.06v28.11h14.06v14.06h14.06v14.06h14.06v14.06h28.11v14.06h196.8v14.06h14.06v14.06h14.06v14.06h337.36v-56.23h-14.06v-28.11h-28.11Z"/>
    </g>
    <g>
      <path class="cls-2" d="m838.85,640.37H23.56v379.53h843.41v-379.53h-28.11Zm0,42.17v309.25H51.67v-323.31h787.18v14.06Z"/>
      <g>
        <path class="cls-2" d="m796.68,682.54h-365.48v14.06h-14.06v14.06h-28.11v14.06h-14.06v14.06h-28.11v14.06h-14.06v14.06h-56.23v14.06h-98.4v14.06h28.11v14.06h42.17v14.06h379.53v14.06h84.34v14.06h42.17v14.06h28.11v14.06h14.06v14.06h14.06v14.06h14.06v-224.91h-28.11Z"/>
        <path class="cls-2" d="m93.84,710.65h14.06v14.06h28.11v14.06h14.06v-14.06h28.11v-14.06h14.06v-28.11h-126.51v28.11h28.11Z"/>
        <path class="cls-2" d="m220.35,935.56h-14.06v-14.06h-14.06v-14.06h-14.06v-14.06h-14.06v-28.11h-14.06v-70.28h-14.06v14.06h-14.06v14.06h-28.11v14.06h-14.06v14.06h-14.06v112.45h309.25v14.06h70.28v-14.06h-28.11v-14.06h-168.68v-14.06h-28.11Z"/>
      </g>
    </g>
    <rect class="cls-31" x="431.2" y="935.56" width="14.06" height="14.06"/>
    <rect class="cls-31" x="810.74" y="935.56" width="14.06" height="14.06"/>
    <rect class="cls-31" x="810.74" y="949.62" width="14.06" height="14.06"/>
    <rect class="cls-31" x="810.74" y="963.68" width="14.06" height="14.06"/>
  </g>
  <g>
    <path class="cls-13" d="m857.34,93.41v11.84h23.68v11.84h23.68v11.84h11.84v11.84h11.84v23.68h11.84v11.84h11.84v11.84h11.84v11.84h11.84v35.53h11.84v23.68h11.84v23.68h11.84v-35.53h-11.84v-23.68h-11.84v-35.53h-11.84v-11.84h-11.84v-11.84h-11.84v-11.84h-11.84v-23.68h-11.84v-11.84h-11.84v-11.84h-23.68v-11.84h-23.68v-11.84h-23.68v11.84h11.84Z"/>
    <path class="cls-2" d="m513.91,176.3h71.05v11.84h23.68v11.84h35.53v11.84h11.84v-11.84h23.68v-11.84h-11.84v-23.68h-11.84v-11.84h-23.68v-11.84h-23.68v-11.84h-35.53v-11.84h-47.37v11.84h-11.84v11.84h-11.84v23.68h-11.84v11.84h23.68Z"/>
    <path class="cls-2" d="m727.07,176.3v-59.21h11.84v-23.68h11.84v-11.84h11.84v-11.84h11.84v-11.84h-106.58v11.84h11.84v11.84h11.84v11.84h11.84v23.68h11.84v71.05h11.84v-11.84Z"/>
    <path class="cls-2" d="m774.44,211.83h11.84v-11.84h23.68v-11.84h71.05v-11.84h59.21v-11.84h-11.84v-23.68h-11.84v-11.84h-11.84v-11.84h-47.37v11.84h-35.53v11.84h-11.84v11.84h-23.68v11.84h-11.84v11.84h-11.84v23.68h11.84v11.84Z"/>
    <path class="cls-9" d="m715.23,211.83h-11.84v11.84h23.68v-11.84h-11.84Z"/>
    <path class="cls-5" d="m679.7,223.67v-11.84h-11.84v35.53h94.74v-35.53h-11.84v23.68h-71.05v-11.84Z"/>
    <path class="cls-13" d="m667.86,199.99h-11.84v59.21h118.42v-59.21h-23.68v-11.84h-71.05v11.84h-11.84Zm23.68,11.84v-11.84h47.37v23.68h-47.37v-11.84Zm0,23.68h59.21v-23.68h11.84v35.53h-94.74v-35.53h11.84v23.68h11.84Z"/>
    <path class="cls-2" d="m667.86,271.04v-11.84h-11.84v23.68h11.84v-11.84Z"/>
    <rect class="cls-25" x="999.45" y="282.89" width="11.84" height="11.84"/>
    <path class="cls-2" d="m975.76,294.73v-11.84h-35.53v-11.84h-47.37v-11.84h-47.37v-11.84h-71.05v11.84h35.53v11.84h11.84v11.84h35.53v11.84h23.68v11.84h11.84v11.84h23.68v11.84h23.68v11.84h11.84v11.84h23.68v11.84h11.84v11.84h11.84v11.84h11.84v-82.9h-11.84v-11.84h-23.68Z"/>
    <path class="cls-13" d="m999.45,306.57h23.68v-11.84h-23.68v11.84Z"/>
    <rect class="cls-28" x="395.49" y="306.57" width="11.84" height="11.84"/>
    <rect class="cls-8" x="407.33" y="306.57" width="11.84" height="11.84"/>
    <rect class="cls-11" x="1011.29" y="306.57" width="11.84" height="11.84"/>
    <rect class="cls-16" x="1023.13" y="306.57" width="11.84" height="11.84"/>
    <rect class="cls-13" x="1034.97" y="306.57" width="11.84" height="11.84"/>
    <path class="cls-2" d="m431.01,330.25v47.37h11.84v-11.84h11.84v-11.84h11.84v-11.84h23.68v-11.84h11.84v-11.84h11.84v-11.84h23.68v-11.84h23.68v-11.84h23.68v-11.84h35.53v-11.84h35.53v-11.84h-71.05v11.84h-47.37v11.84h-35.53v11.84h-47.37v11.84h-23.68v35.53Z"/>
    <path class="cls-5" d="m1023.13,318.41v94.74h23.68v-11.84h11.84v-59.21h-11.84v-23.68h-23.68Z"/>
    <path class="cls-5" d="m383.64,342.1h-11.84v59.21h11.84v11.84h23.68v-11.84h11.84v-82.9h-35.53v23.68Z"/>
    <path class="cls-13" d="m1058.66,330.25v-11.84h-11.84v23.68h11.84v59.21h-11.84v23.68h11.84v-11.84h11.84v-82.9h-11.84Z"/>
    <path class="cls-9" d="m431.01,377.62v-71.05h-11.84v94.74h11.84v-23.68Z"/>
    <path class="cls-9" d="m1023.13,377.62v-59.21h-11.84v82.9h11.84v-23.68Z"/>
    <rect class="cls-5" x="999.45" y="389.47" width="11.84" height="11.84"/>
    <path class="cls-13" d="m608.65,81.57v-11.84h35.53v-11.84h142.11v11.84h35.53v11.84h23.68v-11.84h-11.84v-11.84h-35.53v-11.84h-165.79v11.84h-35.53v11.84h-11.84v11.84h23.68Z"/>
    <path class="cls-13" d="m431.01,306.57v-47.37h11.84v-23.68h11.84v-35.53h11.84v-11.84h11.84v-11.84h11.84v-11.84h11.84v-23.68h11.84v-11.84h11.84v-11.84h23.68v-11.84h23.68v-11.84h11.84v-11.84h-23.68v11.84h-23.68v11.84h-23.68v11.84h-11.84v11.84h-11.84v23.68h-11.84v11.84h-11.84v11.84h-11.84v11.84h-11.84v35.53h-11.84v23.68h-11.84v47.37h-11.84v11.84h23.68Z"/>
    <rect class="cls-13" x="383.64" y="306.57" width="11.84" height="11.84"/>
    <path class="cls-13" d="m383.64,401.31h-11.84v-59.21h11.84v-23.68h-11.84v11.84h-11.84v82.9h11.84v11.84h11.84v-23.68Z"/>
    <rect class="cls-14" x="383.64" y="413.15" width="11.84" height="11.84"/>
    <rect class="cls-26" x="395.49" y="413.15" width="11.84" height="11.84"/>
    <path class="cls-13" d="m1023.13,413.15v-11.84h-23.68v11.84h11.84v71.05h-11.84v11.84h-11.84v11.84h-59.21v-11.84h-11.84v-11.84h-11.84v59.21h-11.84v23.68h-11.84v11.84h23.68v-23.68h11.84v-35.53h82.9v-11.84h11.84v-11.84h11.84v-59.21h11.84v-11.84h-11.84v-11.84Z"/>
    <rect class="cls-26" x="1023.13" y="413.15" width="11.84" height="11.84"/>
    <rect class="cls-14" x="1034.97" y="413.15" width="11.84" height="11.84"/>
    <path class="cls-31" d="m999.45,436.84h-11.84v11.84h-11.84v11.84h-11.84v11.84h-11.84v11.84h-35.53v11.84h11.84v11.84h59.21v-11.84h11.84v-11.84h11.84v-71.05h-11.84v23.68Z"/>
    <path class="cls-2" d="m904.71,460.52v-35.53h-11.84v-23.68h-11.84v-23.68h-11.84v-23.68h-11.84v-11.84h-11.84v-11.84h-11.84v-11.84h-11.84v-11.84h-11.84v-11.84h-11.84v-11.84h-11.84v-11.84h-11.84v-11.84h-11.84v23.68h11.84v23.68h11.84v35.53h11.84v35.53h11.84v153.95h47.37v-11.84h11.84v-11.84h11.84v-11.84h23.68v-35.53Z"/>
    <path class="cls-31" d="m513.91,472.36h-35.53v-11.84h-23.68v-23.68h-23.68v-23.68h-11.84v71.05h11.84v11.84h11.84v11.84h59.21v-11.84h11.84v-11.84h11.84v-11.84h-11.84Z"/>
    <g>
      <path class="cls-4" d="m750.76,188.15v11.84h11.84v-23.68h11.84v-11.84h11.84v-11.84h23.68v-11.84h11.84v-11.84h35.53v-11.84h23.68v-11.84h-23.68v-11.84h-11.84v-11.84h-23.68v-11.84h-35.53v-11.84h-11.84v11.84h-11.84v11.84h-11.84v11.84h-11.84v23.68h-11.84v71.05h23.68Z"/>
      <path class="cls-4" d="m573.12,117.09v11.84h35.53v11.84h23.68v11.84h23.68v11.84h11.84v23.68h47.37v-71.05h-11.84v-23.68h-11.84v-11.84h-11.84v-11.84h-11.84v-11.84h-23.68v11.84h-35.53v11.84h-23.68v11.84h-11.84v11.84h-23.68v11.84h23.68Z"/>
      <path class="cls-4" d="m987.6,259.2v-23.68h-11.84v-35.53h-11.84v-11.84h-11.84v-11.84h-71.05v11.84h-71.05v11.84h-23.68v11.84h-11.84v35.53h71.05v11.84h47.37v11.84h47.37v11.84h35.53v11.84h23.68v-35.53h-11.84Z"/>
      <path class="cls-4" d="m703.39,199.99h-11.84v23.68h11.84v-11.84h23.68v11.84h11.84v-23.68h-35.53Z"/>
      <path class="cls-4" d="m798.13,365.78v-23.68h-11.84v-35.53h-11.84v-23.68h-11.84v-23.68h-94.74v23.68h-11.84v23.68h-11.84v23.68h-11.84v47.37h-11.84v142.11h23.68v11.84h11.84v11.84h106.58v-11.84h35.53v-11.84h11.84v-142.11h-11.84v-11.84Z"/>
      <path class="cls-4" d="m454.7,294.73v-11.84h47.37v-11.84h35.53v-11.84h47.37v-11.84h71.05v-35.53h-11.84v-11.84h-35.53v-11.84h-23.68v-11.84h-106.58v11.84h-11.84v11.84h-11.84v35.53h-11.84v23.68h-11.84v35.53h23.68Z"/>
      <path class="cls-4" d="m987.6,365.78h-11.84v-11.84h-23.68v-11.84h-11.84v-11.84h-23.68v-11.84h-23.68v-11.84h-11.84v-11.84h-23.68v-11.84h-35.53v-11.84h-11.84v-11.84h-35.53v11.84h11.84v11.84h11.84v11.84h11.84v11.84h11.84v11.84h11.84v11.84h11.84v11.84h11.84v11.84h11.84v23.68h11.84v23.68h11.84v23.68h11.84v59.21h47.37v-11.84h11.84v-11.84h11.84v-11.84h11.84v-11.84h11.84v-59.21h-11.84v-11.84Z"/>
      <path class="cls-4" d="m656.02,259.2h-35.53v11.84h-35.53v11.84h-23.68v11.84h-23.68v11.84h-23.68v11.84h-11.84v11.84h-11.84v11.84h-23.68v11.84h-11.84v11.84h-11.84v11.84h-11.84v59.21h23.68v23.68h23.68v11.84h47.37v11.84h11.84v-35.53h11.84v-35.53h11.84v-23.68h11.84v-23.68h11.84v-11.84h11.84v-23.68h11.84v-11.84h11.84v-11.84h11.84v-11.84h11.84v-11.84h11.84v-23.68Z"/>
    </g>
    <path class="cls-2" d="m561.28,507.89v11.84h47.37v11.84h11.84v-153.95h11.84v-47.37h11.84v-23.68h11.84v-23.68h-11.84v11.84h-11.84v11.84h-11.84v11.84h-11.84v11.84h-11.84v23.68h-11.84v11.84h-11.84v23.68h-11.84v23.68h-11.84v35.53h-11.84v35.53h-11.84v11.84h11.84v11.84h23.68Z"/>
    <path class="cls-9" d="m881.02,496.05v11.84h-11.84v11.84h-11.84v11.84h-47.37v11.84h11.84v11.84h11.84v-11.84h35.53v-11.84h23.68v-11.84h11.84v-23.68h-23.68Z"/>
    <rect class="cls-30" x="798.13" y="519.73" width="11.84" height="11.84"/>
    <path class="cls-9" d="m608.65,531.57v-11.84h-47.37v-11.84h-23.68v11.84h11.84v11.84h11.84v11.84h59.21v-11.84h-11.84Z"/>
    <path class="cls-13" d="m798.13,531.57v35.53h-11.84v23.68h11.84v-11.84h11.84v-47.37h-11.84Z"/>
    <path class="cls-5" d="m892.87,567.1v-23.68h11.84v-23.68h-11.84v11.84h-23.68v11.84h-35.53v11.84h-11.84v-11.84h-11.84v35.53h-11.84v11.84h59.21v-11.84h23.68v-11.84h11.84Z"/>
    <path class="cls-13" d="m537.6,567.1v-23.68h-11.84v-59.21h-11.84v11.84h-11.84v11.84h-59.21v-11.84h-11.84v-11.84h-11.84v-71.05h11.84v-11.84h-23.68v23.68h-11.84v11.84h11.84v59.21h11.84v11.84h11.84v11.84h82.9v35.53h11.84v23.68h23.68v-11.84h-11.84Z"/>
    <path class="cls-5" d="m573.12,578.94v11.84h59.21v-11.84h-11.84v-35.53h-59.21v-11.84h-11.84v-11.84h-11.84v-23.68h-11.84v47.37h11.84v23.68h11.84v11.84h23.68Z"/>
    <path class="cls-13" d="m644.18,567.1h-11.84v-35.53h-11.84v47.37h11.84v11.84h11.84v-23.68Z"/>
    <path class="cls-31" d="m786.28,567.1h11.84v-35.53h-35.53v11.84h-106.58v-11.84h-11.84v-11.84h-23.68v11.84h11.84v35.53h11.84v23.68h11.84v11.84h23.68v11.84h71.05v-11.84h23.68v-11.84h11.84v-23.68Z"/>
    <path class="cls-13" d="m857.34,578.94v11.84h-23.68v11.84h35.53v-11.84h11.84v-11.84h-23.68Z"/>
    <path class="cls-13" d="m596.81,590.79h-23.68v-11.84h-23.68v11.84h11.84v11.84h47.37v-11.84h-11.84Z"/>
    <rect class="cls-12" x="608.65" y="590.79" width="11.84" height="11.84"/>
    <rect class="cls-22" x="620.49" y="590.79" width="11.84" height="11.84"/>
    <rect class="cls-24" x="632.33" y="590.79" width="11.84" height="11.84"/>
    <rect class="cls-12" x="644.18" y="590.79" width="11.84" height="11.84"/>
    <rect class="cls-13" x="774.44" y="590.79" width="11.84" height="11.84"/>
    <rect class="cls-35" x="786.28" y="590.79" width="11.84" height="11.84"/>
    <rect class="cls-29" x="798.13" y="590.79" width="11.84" height="11.84"/>
    <rect class="cls-27" x="809.97" y="590.79" width="11.84" height="11.84"/>
    <rect class="cls-34" x="821.81" y="590.79" width="11.84" height="11.84"/>
    <rect class="cls-33" x="644.18" y="602.63" width="11.84" height="11.84"/>
    <rect class="cls-23" x="656.02" y="602.63" width="11.84" height="11.84"/>
    <rect class="cls-13" x="667.86" y="602.63" width="11.84" height="11.84"/>
    <path class="cls-13" d="m774.44,614.47v-11.84h-23.68v11.84h-47.37v11.84h35.53v94.74h-11.84v23.68h-23.68v-23.68h-11.84v-106.58h-11.84v118.42h11.84v23.68h47.37v-23.68h11.84v-106.58h11.84v-11.84h11.84Z"/>
    <rect class="cls-32" x="774.44" y="602.63" width="11.84" height="11.84"/>
    <rect class="cls-19" x="644.18" y="614.47" width="11.84" height="11.84"/>
    <rect class="cls-15" x="656.02" y="614.47" width="11.84" height="11.84"/>
    <rect class="cls-18" x="667.86" y="614.47" width="11.84" height="11.84"/>
    <rect class="cls-21" x="691.55" y="614.47" width="11.84" height="11.84"/>
    <rect class="cls-17" x="762.6" y="614.47" width="11.84" height="11.84"/>
    <rect class="cls-20" x="774.44" y="614.47" width="11.84" height="11.84"/>
    <rect class="cls-7" x="691.55" y="626.31" width="11.84" height="11.84"/>
    <rect class="cls-10" x="703.39" y="626.31" width="11.84" height="11.84"/>
    <rect class="cls-6" x="715.23" y="626.31" width="11.84" height="11.84"/>
    <rect class="cls-3" x="727.07" y="626.31" width="11.84" height="11.84"/>
    <path class="cls-5" d="m715.23,638.16h-23.68v82.9h11.84v23.68h23.68v-23.68h11.84v-82.9h-23.68Z"/>
  </g>
</svg>