<?xml version="1.0" encoding="UTF-8"?>
<svg id="Layer_1" data-name="Layer 1" xmlns="http://www.w3.org/2000/svg" viewBox="0 0 1080 1080">
  <defs>
    <style>
      .cls-1 {
        fill: none;
      }

      .cls-2 {
        fill: #f8f8f8;
      }

      .cls-3 {
        fill: #ff9fcb;
      }

      .cls-4 {
        fill: #ff66a4;
      }

      .cls-5 {
        fill: #7e91b7;
      }

      .cls-6 {
        fill: #98b1d9;
      }

      .cls-7 {
        fill: #97b0d8;
      }

      .cls-8 {
        fill: #7f93b9;
      }

      .cls-9 {
        fill: #8a9fc6;
      }

      .cls-10 {
        fill: #b8cdee;
      }

      .cls-11 {
        fill: #8ea4cb;
      }

      .cls-12 {
        fill: #a5b7d8;
      }

      .cls-13 {
        fill: #424768;
      }

      .cls-14, .cls-15, .cls-16, .cls-17, .cls-18, .cls-19, .cls-20, .cls-21 {
        fill: #404465;
      }

      .cls-22 {
        fill: #404466;
      }

      .cls-23 {
        fill: #444c6d;
      }

      .cls-24 {
        fill: #444c6e;
      }

      .cls-25 {
        fill: #444b6d;
      }

      .cls-26 {
        fill: #3f4667;
      }

      .cls-27 {
        fill: #869bc2;
      }

      .cls-28 {
        fill: #5b6689;
      }

      .cls-29 {
        fill: #5b5e7a;
      }

      .cls-30 {
        fill: #5c678a;
      }

      .cls-31 {
        fill: #316a9f;
      }

      .cls-32 {
        fill: #4b5a7c;
      }

      .cls-33 {
        fill: #506386;
      }

      .cls-34 {
        fill: #4d5476;
      }

      .cls-35 {
        fill: #454d6f;
      }

      .cls-15 {
        opacity: .9;
      }

      .cls-15, .cls-16, .cls-17, .cls-18, .cls-19, .cls-20, .cls-21 {
        isolation: isolate;
      }

      .cls-16 {
        opacity: .47;
      }

      .cls-17 {
        opacity: .85;
      }

      .cls-18 {
        opacity: .86;
      }

      .cls-19 {
        opacity: .95;
      }

      .cls-20 {
        opacity: .05;
      }

      .cls-21 {
        opacity: .11;
      }
    </style>
  </defs>
  <g>
    <path class="cls-1" d="m360.25,965.27H63.94v14.11h310.42v-14.11h-14.11Z"/>
    <g>
      <path class="cls-14" d="m868.2,626.64H7.5v409.18h874.81v-409.18h-14.11Zm0,28.22v366.86H21.61v-380.96h846.59v14.11Z"/>
      <path class="cls-14" d="m811.76,668.97H49.83v324.53h790.15v-324.53h-28.22Zm-747.82,28.22v-14.11h126.99v28.22h-14.11v14.11h-28.22v14.11h-14.11v-14.11h-28.22v-14.11h-42.33v-14.11Zm0,112.88v-84.66h28.22v14.11h28.22v14.11h14.11v14.11h14.11v14.11h-28.22v14.11h-14.11v14.11h-28.22v14.11h-14.11v-14.11Zm761.93-112.88v211.65h-14.11v-14.11h-14.11v28.22h14.11v14.11h14.11v42.33h-352.75v-14.11h-14.11v-14.11h-28.22v-14.11h-183.43v14.11h169.32v14.11h28.22v14.11H63.94v-126.99h14.11v-14.11h14.11v-14.11h28.22v-14.11h14.11v-14.11h14.11v70.55h14.11v28.22h14.11v14.11h14.11v14.11h14.11v14.11h42.33v-14.11h-28.22v-14.11h-14.11v-14.11h-14.11v-14.11h-14.11v-28.22h-14.11v-42.33h42.33v-14.11h-28.22v-14.11h98.77v-14.11h-98.77v-14.11h-14.11v-14.11h28.22v-14.11h14.11v-42.33h197.54v14.11h-14.11v14.11h28.22v-14.11h14.11v-14.11h395.07v14.11Z"/>
    </g>
    <path class="cls-4" d="m289.7,739.52v14.11h28.22v-14.11h-28.22Z"/>
    <path class="cls-14" d="m303.81,767.74h28.22v-14.11h14.11v-14.11h28.22v-14.11h14.11v-14.11h-28.22v14.11h-28.22v14.11h-14.11v14.11h-42.33v14.11h28.22Z"/>
    <rect class="cls-4" x="92.16" y="795.96" width="14.11" height="14.11"/>
    <path class="cls-14" d="m219.15,824.18h28.22v-14.11h-42.33v14.11h14.11Z"/>
    <path class="cls-14" d="m261.48,838.29h366.86v-14.11H247.37v14.11h14.11Z"/>
    <path class="cls-14" d="m642.44,852.4h70.55v-14.11h-84.66v14.11h14.11Z"/>
    <path class="cls-14" d="m727.1,866.51h28.22v-14.11h-42.33v14.11h14.11Z"/>
    <path class="cls-14" d="m769.43,880.62h14.11v-14.11h-28.22v14.11h14.11Z"/>
    <rect class="cls-4" x="769.43" y="880.62" width="14.11" height="14.11"/>
    <rect class="cls-14" x="783.54" y="880.62" width="14.11" height="14.11"/>
    <g>
      <path class="cls-4" d="m289.7,753.63v-14.11h42.33v-14.11h28.22v-14.11h28.22v-14.11h14.11v-14.11h-197.54v42.33h-14.11v14.11h-28.22v14.11h14.11v14.11h98.77v-14.11h14.11Z"/>
      <path class="cls-4" d="m78.05,810.07h14.11v-14.11h28.22v-14.11h28.22v-14.11h-14.11v-14.11h-14.11v-14.11h-28.22v-14.11h-28.22v98.77h14.11v-14.11Z"/>
      <path class="cls-4" d="m769.43,894.73v-14.11h-14.11v-14.11h-42.33v-14.11h-84.66v-14.11H247.37v-14.11h-42.33v-14.11h-42.33v42.33h14.11v28.22h14.11v14.11h14.11v14.11h14.11v14.11h28.22v14.11h197.54v14.11h14.11v14.11h14.11v14.11h338.64v-56.44h-14.11v-28.22h-28.22Z"/>
    </g>
    <g>
      <path class="cls-2" d="m839.98,640.75H21.61v380.96h846.59v-380.96h-28.22Zm0,42.33v310.42H49.83v-324.53h790.15v14.11Z"/>
      <g>
        <path class="cls-2" d="m797.65,683.08h-366.86v14.11h-14.11v14.11h-28.22v14.11h-14.11v14.11h-28.22v14.11h-14.11v14.11h-56.44v14.11h-98.77v14.11h28.22v14.11h42.33v14.11h380.96v14.11h84.66v14.11h42.33v14.11h28.22v14.11h14.11v14.11h14.11v14.11h14.11v-225.76h-28.22Z"/>
        <path class="cls-2" d="m92.16,711.3h14.11v14.11h28.22v14.11h14.11v-14.11h28.22v-14.11h14.11v-28.22H63.94v28.22h28.22Z"/>
        <path class="cls-2" d="m219.15,937.05h-14.11v-14.11h-14.11v-14.11h-14.11v-14.11h-14.11v-28.22h-14.11v-70.55h-14.11v14.11h-14.11v14.11h-28.22v14.11h-14.11v14.11h-14.11v112.88h310.42v14.11h70.55v-14.11h-28.22v-14.11h-169.32v-14.11h-28.22Z"/>
      </g>
    </g>
    <rect class="cls-4" x="430.79" y="937.05" width="14.11" height="14.11"/>
    <rect class="cls-4" x="811.76" y="937.05" width="14.11" height="14.11"/>
    <rect class="cls-4" x="811.76" y="951.16" width="14.11" height="14.11"/>
    <rect class="cls-4" x="811.76" y="965.27" width="14.11" height="14.11"/>
  </g>
  <g>
    <path class="cls-14" d="m858.53,91.72v11.89h23.77v11.89h23.77v11.89h11.89v11.89h11.89v23.77h11.89v11.89h11.89v11.89h11.89v11.89h11.89v35.66h11.89v23.77h11.89v23.77h11.89v-35.66h-11.89v-23.77h-11.89v-35.66h-11.89v-11.89h-11.89v-11.89h-11.89v-11.89h-11.89v-23.77h-11.89v-11.89h-11.89v-11.89h-23.77v-11.89h-23.77v-11.89h-23.77v11.89h11.89Z"/>
    <path class="cls-2" d="m513.81,174.93h71.32v11.89h23.77v11.89h35.66v11.89h11.89v-11.89h23.77v-11.89h-11.89v-23.77h-11.89v-11.89h-23.77v-11.89h-23.77v-11.89h-35.66v-11.89h-47.55v11.89h-11.89v11.89h-11.89v23.77h-11.89v11.89h23.77Z"/>
    <path class="cls-2" d="m727.78,174.93v-59.43h11.89v-23.77h11.89v-11.89h11.89v-11.89h11.89v-11.89h-106.98v11.89h11.89v11.89h11.89v11.89h11.89v23.77h11.89v71.32h11.89v-11.89Z"/>
    <path class="cls-2" d="m775.33,210.59h11.89v-11.89h23.77v-11.89h71.32v-11.89h59.43v-11.89h-11.89v-23.77h-11.89v-11.89h-11.89v-11.89h-47.55v11.89h-35.66v11.89h-11.89v11.89h-23.77v11.89h-11.89v11.89h-11.89v23.77h11.89v11.89Z"/>
    <path class="cls-10" d="m715.89,210.59h-11.89v11.89h23.77v-11.89h-11.89Z"/>
    <path class="cls-6" d="m680.23,222.48v-11.89h-11.89v35.66h95.1v-35.66h-11.89v23.77h-71.32v-11.89Z"/>
    <path class="cls-14" d="m668.34,198.71h-11.89v59.43h118.87v-59.43h-23.77v-11.89h-71.32v11.89h-11.89Zm23.77,11.89v-11.89h47.55v23.77h-47.55v-11.89Zm0,23.77h59.43v-23.77h11.89v35.66h-95.1v-35.66h11.89v23.77h11.89Z"/>
    <path class="cls-2" d="m668.34,270.03v-11.89h-11.89v23.77h11.89v-11.89Z"/>
    <rect class="cls-26" x="1001.18" y="281.92" width="11.89" height="11.89"/>
    <path class="cls-2" d="m977.4,293.8v-11.89h-35.66v-11.89h-47.55v-11.89h-47.55v-11.89h-71.32v11.89h35.66v11.89h11.89v11.89h35.66v11.89h23.77v11.89h11.89v11.89h23.77v11.89h23.77v11.89h11.89v11.89h23.77v11.89h11.89v11.89h11.89v11.89h11.89v-83.21h-11.89v-11.89h-23.77Z"/>
    <path class="cls-14" d="m1001.18,305.69h23.77v-11.89h-23.77v11.89Z"/>
    <rect class="cls-29" x="394.94" y="305.69" width="11.89" height="11.89"/>
    <rect class="cls-9" x="406.83" y="305.69" width="11.89" height="11.89"/>
    <rect class="cls-12" x="1013.07" y="305.69" width="11.89" height="11.89"/>
    <rect class="cls-17" x="1024.95" y="305.69" width="11.89" height="11.89"/>
    <rect class="cls-14" x="1036.84" y="305.69" width="11.89" height="11.89"/>
    <path class="cls-2" d="m430.6,329.46v47.55h11.89v-11.89h11.89v-11.89h11.89v-11.89h23.77v-11.89h11.89v-11.89h11.89v-11.89h23.77v-11.89h23.77v-11.89h23.77v-11.89h35.66v-11.89h35.66v-11.89h-71.32v11.89h-47.55v11.89h-35.66v11.89h-47.55v11.89h-23.77v35.66Z"/>
    <path class="cls-6" d="m1024.95,317.58v95.1h23.77v-11.89h11.89v-59.43h-11.89v-23.77h-23.77Z"/>
    <path class="cls-6" d="m383.06,341.35h-11.89v59.43h11.89v11.89h23.77v-11.89h11.89v-83.21h-35.66v23.77Z"/>
    <path class="cls-14" d="m1060.61,329.46v-11.89h-11.89v23.77h11.89v59.43h-11.89v23.77h11.89v-11.89h11.89v-83.21h-11.89Z"/>
    <path class="cls-10" d="m430.6,377.01v-71.32h-11.89v95.1h11.89v-23.77Z"/>
    <path class="cls-10" d="m1024.95,377.01v-59.43h-11.89v83.21h11.89v-23.77Z"/>
    <rect class="cls-6" x="1001.18" y="388.9" width="11.89" height="11.89"/>
    <path class="cls-14" d="m608.91,79.84v-11.89h35.66v-11.89h142.64v11.89h35.66v11.89h23.77v-11.89h-11.89v-11.89h-35.66v-11.89h-166.42v11.89h-35.66v11.89h-11.89v11.89h23.77Z"/>
    <path class="cls-14" d="m430.6,305.69v-47.55h11.89v-23.77h11.89v-35.66h11.89v-11.89h11.89v-11.89h11.89v-11.89h11.89v-23.77h11.89v-11.89h11.89v-11.89h23.77v-11.89h23.77v-11.89h11.89v-11.89h-23.77v11.89h-23.77v11.89h-23.77v11.89h-11.89v11.89h-11.89v23.77h-11.89v11.89h-11.89v11.89h-11.89v11.89h-11.89v35.66h-11.89v23.77h-11.89v47.55h-11.89v11.89h23.77Z"/>
    <rect class="cls-14" x="383.06" y="305.69" width="11.89" height="11.89"/>
    <path class="cls-14" d="m383.06,400.79h-11.89v-59.43h11.89v-23.77h-11.89v11.89h-11.89v83.21h11.89v11.89h11.89v-23.77Z"/>
    <rect class="cls-15" x="383.06" y="412.67" width="11.89" height="11.89"/>
    <rect class="cls-27" x="394.94" y="412.67" width="11.89" height="11.89"/>
    <path class="cls-14" d="m1024.95,412.67v-11.89h-23.77v11.89h11.89v71.32h-11.89v11.89h-11.89v11.89h-59.43v-11.89h-11.89v-11.89h-11.89v59.43h-11.89v23.77h-11.89v11.89h23.77v-23.77h11.89v-35.66h83.21v-11.89h11.89v-11.89h11.89v-59.43h11.89v-11.89h-11.89v-11.89Z"/>
    <rect class="cls-27" x="1024.95" y="412.67" width="11.89" height="11.89"/>
    <rect class="cls-15" x="1036.84" y="412.67" width="11.89" height="11.89"/>
    <path class="cls-4" d="m1001.18,436.45h-11.89v11.89h-11.89v11.89h-11.89v11.89h-11.89v11.89h-35.66v11.89h11.89v11.89h59.43v-11.89h11.89v-11.89h11.89v-71.32h-11.89v23.77Z"/>
    <path class="cls-2" d="m906.08,460.22v-35.66h-11.89v-23.77h-11.89v-23.77h-11.89v-23.77h-11.89v-11.89h-11.89v-11.89h-11.89v-11.89h-11.89v-11.89h-11.89v-11.89h-11.89v-11.89h-11.89v-11.89h-11.89v-11.89h-11.89v23.77h11.89v23.77h11.89v35.66h11.89v35.66h11.89v154.53h47.55v-11.89h11.89v-11.89h11.89v-11.89h23.77v-35.66Z"/>
    <path class="cls-4" d="m513.81,472.11h-35.66v-11.89h-23.77v-23.77h-23.77v-23.77h-11.89v71.32h11.89v11.89h11.89v11.89h59.43v-11.89h11.89v-11.89h11.89v-11.89h-11.89Z"/>
    <g>
      <path class="cls-3" d="m751.55,186.82v11.89h11.89v-23.77h11.89v-11.89h11.89v-11.89h23.77v-11.89h11.89v-11.89h35.66v-11.89h23.77v-11.89h-23.77v-11.89h-11.89v-11.89h-23.77v-11.89h-35.66v-11.89h-11.89v11.89h-11.89v11.89h-11.89v11.89h-11.89v23.77h-11.89v71.32h23.77Z"/>
      <path class="cls-3" d="m573.25,115.5v11.89h35.66v11.89h23.77v11.89h23.77v11.89h11.89v23.77h47.55v-71.32h-11.89v-23.77h-11.89v-11.89h-11.89v-11.89h-11.89v-11.89h-23.77v11.89h-35.66v11.89h-23.77v11.89h-11.89v11.89h-23.77v11.89h23.77Z"/>
      <path class="cls-3" d="m989.29,258.14v-23.77h-11.89v-35.66h-11.89v-11.89h-11.89v-11.89h-71.32v11.89h-71.32v11.89h-23.77v11.89h-11.89v35.66h71.32v11.89h47.55v11.89h47.55v11.89h35.66v11.89h23.77v-35.66h-11.89Z"/>
      <path class="cls-3" d="m704,198.71h-11.89v23.77h11.89v-11.89h23.77v11.89h11.89v-23.77h-35.66Z"/>
      <path class="cls-3" d="m799.1,365.13v-23.77h-11.89v-35.66h-11.89v-23.77h-11.89v-23.77h-95.1v23.77h-11.89v23.77h-11.89v23.77h-11.89v47.55h-11.89v142.64h23.77v11.89h11.89v11.89h106.98v-11.89h35.66v-11.89h11.89v-142.64h-11.89v-11.89Z"/>
      <path class="cls-3" d="m454.38,293.8v-11.89h47.55v-11.89h35.66v-11.89h47.55v-11.89h71.32v-35.66h-11.89v-11.89h-35.66v-11.89h-23.77v-11.89h-106.98v11.89h-11.89v11.89h-11.89v35.66h-11.89v23.77h-11.89v35.66h23.77Z"/>
      <path class="cls-3" d="m989.29,365.13h-11.89v-11.89h-23.77v-11.89h-11.89v-11.89h-23.77v-11.89h-23.77v-11.89h-11.89v-11.89h-23.77v-11.89h-35.66v-11.89h-11.89v-11.89h-35.66v11.89h11.89v11.89h11.89v11.89h11.89v11.89h11.89v11.89h11.89v11.89h11.89v11.89h11.89v11.89h11.89v23.77h11.89v23.77h11.89v23.77h11.89v59.43h47.55v-11.89h11.89v-11.89h11.89v-11.89h11.89v-11.89h11.89v-59.43h-11.89v-11.89Z"/>
      <path class="cls-3" d="m656.46,258.14h-35.66v11.89h-35.66v11.89h-23.77v11.89h-23.77v11.89h-23.77v11.89h-11.89v11.89h-11.89v11.89h-23.77v11.89h-11.89v11.89h-11.89v11.89h-11.89v59.43h23.77v23.77h23.77v11.89h47.55v11.89h11.89v-35.66h11.89v-35.66h11.89v-23.77h11.89v-23.77h11.89v-11.89h11.89v-23.77h11.89v-11.89h11.89v-11.89h11.89v-11.89h11.89v-11.89h11.89v-23.77Z"/>
    </g>
    <path class="cls-2" d="m561.36,507.77v11.89h47.55v11.89h11.89v-154.53h11.89v-47.55h11.89v-23.77h11.89v-23.77h-11.89v11.89h-11.89v11.89h-11.89v11.89h-11.89v11.89h-11.89v23.77h-11.89v11.89h-11.89v23.77h-11.89v23.77h-11.89v35.66h-11.89v35.66h-11.89v11.89h11.89v11.89h23.77Z"/>
    <path class="cls-10" d="m882.31,495.88v11.89h-11.89v11.89h-11.89v11.89h-47.55v11.89h11.89v11.89h11.89v-11.89h35.66v-11.89h23.77v-11.89h11.89v-23.77h-23.77Z"/>
    <rect class="cls-31" x="799.1" y="519.66" width="11.89" height="11.89"/>
    <path class="cls-10" d="m608.91,531.54v-11.89h-47.55v-11.89h-23.77v11.89h11.89v11.89h11.89v11.89h59.43v-11.89h-11.89Z"/>
    <path class="cls-14" d="m799.1,531.54v35.66h-11.89v23.77h11.89v-11.89h11.89v-47.55h-11.89Z"/>
    <path class="cls-6" d="m894.2,567.2v-23.77h11.89v-23.77h-11.89v11.89h-23.77v11.89h-35.66v11.89h-11.89v-11.89h-11.89v35.66h-11.89v11.89h59.43v-11.89h23.77v-11.89h11.89Z"/>
    <path class="cls-14" d="m537.59,567.2v-23.77h-11.89v-59.43h-11.89v11.89h-11.89v11.89h-59.43v-11.89h-11.89v-11.89h-11.89v-71.32h11.89v-11.89h-23.77v23.77h-11.89v11.89h11.89v59.43h11.89v11.89h11.89v11.89h83.21v35.66h11.89v23.77h23.77v-11.89h-11.89Z"/>
    <path class="cls-6" d="m573.25,579.09v11.89h59.43v-11.89h-11.89v-35.66h-59.43v-11.89h-11.89v-11.89h-11.89v-23.77h-11.89v47.55h11.89v23.77h11.89v11.89h23.77Z"/>
    <path class="cls-14" d="m644.57,567.2h-11.89v-35.66h-11.89v47.55h11.89v11.89h11.89v-23.77Z"/>
    <path class="cls-4" d="m787.21,567.2h11.89v-35.66h-35.66v11.89h-106.98v-11.89h-11.89v-11.89h-23.77v11.89h11.89v35.66h11.89v23.77h11.89v11.89h23.77v11.89h71.32v-11.89h23.77v-11.89h11.89v-23.77Z"/>
    <path class="cls-14" d="m858.53,579.09v11.89h-23.77v11.89h35.66v-11.89h11.89v-11.89h-23.77Z"/>
    <path class="cls-14" d="m597.02,590.98h-23.77v-11.89h-23.77v11.89h11.89v11.89h47.55v-11.89h-11.89Z"/>
    <rect class="cls-13" x="608.91" y="590.98" width="11.89" height="11.89"/>
    <rect class="cls-23" x="620.79" y="590.98" width="11.89" height="11.89"/>
    <rect class="cls-25" x="632.68" y="590.98" width="11.89" height="11.89"/>
    <rect class="cls-13" x="644.57" y="590.98" width="11.89" height="11.89"/>
    <rect class="cls-14" x="775.33" y="590.98" width="11.89" height="11.89"/>
    <rect class="cls-35" x="787.21" y="590.98" width="11.89" height="11.89"/>
    <rect class="cls-30" x="799.1" y="590.98" width="11.89" height="11.89"/>
    <rect class="cls-28" x="810.99" y="590.98" width="11.89" height="11.89"/>
    <rect class="cls-34" x="822.87" y="590.98" width="11.89" height="11.89"/>
    <rect class="cls-33" x="644.57" y="602.86" width="11.89" height="11.89"/>
    <rect class="cls-24" x="656.46" y="602.86" width="11.89" height="11.89"/>
    <rect class="cls-14" x="668.34" y="602.86" width="11.89" height="11.89"/>
    <path class="cls-14" d="m775.33,614.75v-11.89h-23.77v11.89h-47.55v11.89h35.66v95.1h-11.89v23.77h-23.77v-23.77h-11.89v-106.98h-11.89v118.87h11.89v23.77h47.55v-23.77h11.89v-106.98h11.89v-11.89h11.89Z"/>
    <rect class="cls-32" x="775.33" y="602.86" width="11.89" height="11.89"/>
    <rect class="cls-20" x="644.57" y="614.75" width="11.89" height="11.89"/>
    <rect class="cls-16" x="656.46" y="614.75" width="11.89" height="11.89"/>
    <rect class="cls-19" x="668.34" y="614.75" width="11.89" height="11.89"/>
    <rect class="cls-22" x="692.12" y="614.75" width="11.89" height="11.89"/>
    <rect class="cls-18" x="763.44" y="614.75" width="11.89" height="11.89"/>
    <rect class="cls-21" x="775.33" y="614.75" width="11.89" height="11.89"/>
    <rect class="cls-8" x="692.12" y="626.64" width="11.89" height="11.89"/>
    <rect class="cls-11" x="704" y="626.64" width="11.89" height="11.89"/>
    <rect class="cls-7" x="715.89" y="626.64" width="11.89" height="11.89"/>
    <rect class="cls-5" x="727.78" y="626.64" width="11.89" height="11.89"/>
    <path class="cls-6" d="m715.89,638.53h-23.77v83.21h11.89v23.77h23.77v-23.77h11.89v-83.21h-23.77Z"/>
  </g>
</svg>